<?xml version="1.0" standalone="no"?>
<!DOCTYPE svg PUBLIC "-//W3C//DTD SVG 20010904//EN"
 "http://www.w3.org/TR/2001/REC-SVG-20010904/DTD/svg10.dtd">
<svg version="1.0" xmlns="http://www.w3.org/2000/svg"
 width="400.000000pt" height="400.000000pt" viewBox="0 0 400.000000 400.000000"
 preserveAspectRatio="xMidYMid meet">
<metadata>
Created by potrace 1.11, written by Peter Selinger 2001-2013
</metadata>
<g transform="translate(0.000000,400.000000) scale(0.100000,-0.100000)"
fill="#000000" stroke="none">
<path d="M0 2000 l0 -2000 2000 0 2000 0 0 2000 0 2000 -2000 0 -2000 0 0
-2000z m2171 1112 c114 -45 183 -119 222 -236 18 -52 21 -94 25 -288 l4 -228
-180 0 -181 0 -3 186 -3 186 -33 29 c-29 26 -40 29 -98 29 -129 0 -149 -31
-149 -230 0 -118 3 -139 20 -170 15 -25 83 -77 235 -181 246 -168 318 -232
358 -316 27 -58 27 -59 30 -316 2 -165 -1 -277 -8 -312 -27 -131 -115 -241
-228 -287 -53 -21 -71 -23 -262 -23 -191 0 -209 2 -262 23 -72 29 -152 100
-184 163 -46 93 -54 146 -54 386 l0 223 175 0 175 0 0 -167 c0 -256 14 -283
149 -283 132 0 151 28 151 224 0 74 -5 147 -11 163 -18 48 -58 81 -272 225
-114 76 -225 156 -246 177 -52 52 -91 121 -107 190 -19 79 -18 453 0 542 28
131 99 229 201 275 81 37 125 43 310 40 148 -2 177 -5 226 -24z m649 -1667
c27 -14 33 -14 62 1 31 16 32 16 57 -14 18 -22 36 -32 61 -34 31 -3 35 -6 38
-35 2 -24 11 -37 33 -50 28 -16 30 -22 25 -56 -4 -25 -1 -48 10 -68 15 -30 15
-32 -11 -59 -20 -21 -26 -36 -23 -61 3 -30 0 -34 -30 -43 -24 -6 -39 -20 -50
-43 -14 -30 -19 -33 -50 -27 -26 5 -41 1 -63 -15 l-29 -22 -29 22 c-22 16 -37
20 -63 15 -31 -6 -36 -3 -50 27 -11 23 -26 37 -50 43 -30 9 -33 13 -30 44 2
25 -4 40 -24 61 -25 26 -25 28 -10 58 11 20 14 43 10 68 -5 34 -3 40 25 56 22
13 31 26 33 50 3 29 6 32 40 35 28 2 43 11 58 33 25 34 23 33 60 14z"/>
<path d="M2876 1219 l-48 -71 -33 32 c-29 28 -37 31 -50 20 -8 -7 -15 -18 -15
-24 0 -18 85 -106 103 -106 18 0 137 169 137 194 0 13 -20 26 -39 26 -5 0 -29
-32 -55 -71z"/>
</g>
</svg>
