<?xml version="1.0" standalone="no"?>
<!DOCTYPE svg PUBLIC "-//W3C//DTD SVG 20010904//EN"
 "http://www.w3.org/TR/2001/REC-SVG-20010904/DTD/svg10.dtd">
<svg version="1.0" xmlns="http://www.w3.org/2000/svg"
 width="400.000000pt" height="400.000000pt" viewBox="0 0 400.000000 400.000000"
 preserveAspectRatio="xMidYMid meet">
<metadata>
Created by potrace 1.11, written by Peter Selinger 2001-2013
</metadata>
<g transform="translate(0.000000,400.000000) scale(0.100000,-0.100000)"
fill="#000000" stroke="none">
<path d="M0 2000 l0 -2000 2000 0 2000 0 0 2000 0 2000 -2000 0 -2000 0 0
-2000z m2253 1041 c79 -31 136 -77 175 -141 59 -98 65 -132 70 -382 l4 -228
-181 0 -181 0 0 176 c0 233 -12 254 -143 254 -126 0 -151 -43 -145 -245 2 -99
7 -126 23 -155 15 -25 81 -76 235 -182 249 -169 319 -231 357 -314 27 -59 28
-61 31 -314 4 -274 -4 -344 -49 -431 -31 -62 -92 -122 -151 -151 -87 -42 -147
-51 -333 -46 -146 4 -178 8 -227 27 -71 28 -151 99 -184 162 -46 93 -54 146
-54 386 l0 223 175 0 175 0 0 -167 c0 -257 14 -283 151 -283 73 0 81 2 111 29
l33 29 3 151 c5 220 16 204 -262 390 -248 167 -319 231 -357 328 -21 53 -23
77 -27 284 -2 126 1 250 6 280 18 94 52 170 101 222 98 105 174 128 416 123
148 -2 178 -6 228 -25z m592 -1723 c19 -8 31 -8 51 1 24 11 30 9 54 -14 15
-14 38 -25 53 -25 21 0 27 -5 27 -21 0 -12 14 -34 30 -49 25 -23 29 -34 24
-55 -3 -14 -1 -39 6 -56 11 -26 10 -32 -9 -53 -11 -12 -21 -35 -21 -50 0 -21
-7 -30 -28 -38 -17 -7 -33 -23 -40 -40 -9 -24 -14 -27 -40 -22 -20 4 -38 0
-56 -11 -25 -16 -27 -16 -52 0 -17 11 -36 15 -56 11 -25 -5 -30 -2 -39 22 -6
17 -21 32 -39 39 -23 9 -30 17 -30 39 0 15 -10 38 -21 50 -19 21 -20 27 -9 53
7 17 9 42 6 56 -5 21 -1 32 24 55 16 15 30 37 30 49 0 16 6 21 28 21 17 0 38
10 52 25 27 29 22 28 55 13z"/>
</g>
</svg>
