<?xml version="1.0" encoding="UTF-8" standalone="no"?>
<svg width="665px" height="248px" viewBox="0 0 665 248" version="1.1" xmlns="http://www.w3.org/2000/svg" xmlns:xlink="http://www.w3.org/1999/xlink" xmlns:sketch="http://www.bohemiancoding.com/sketch/ns">
    <!-- Generator: Sketch 3.4.2 (15855) - http://www.bohemiancoding.com/sketch -->
    <title>Slice 3</title>
    <desc>Created with Sketch.</desc>
    <defs></defs>
    <g id="Page-1" stroke="none" stroke-width="1" fill="none" fill-rule="evenodd" sketch:type="MSPage">
        <g id="Consultnts_Ntwrk_Blk_2ln" sketch:type="MSLayerGroup" transform="translate(36.000000, 23.000000)" fill="#1A1918">
            <path d="M163.129768,148.463688 C162.880711,149.180156 158.946226,162.789906 149.327547,176.844688 C141.020363,189.008875 132.397916,201.122563 118.816379,201.36875 C105.474442,201.62125 101.177405,193.44025 85.9312789,193.44025 C70.6662368,193.44025 65.89,201.122563 53.2731684,201.62125 C40.1645263,202.119938 30.1769895,188.478625 21.8004474,176.364938 C4.68481053,151.588375 -8.37969474,106.353 9.18361579,75.8446875 C17.8848789,60.67575 33.4904053,51.0775938 50.4137316,50.8250938 C63.2953842,50.5820625 75.4298632,59.4921563 83.3051368,59.4921563 C91.1772579,59.4921563 105.931574,48.770375 121.455132,50.3421875 C127.943247,50.6199375 146.184374,52.961875 157.905858,70.131875 C156.972679,70.7220937 136.136937,82.8610312 136.363926,108.098406 C136.6319,138.297406 162.823963,148.346906 163.129768,148.463688 L163.129768,148.463688 Z M111.278437,33.9770313 C118.258363,25.5245937 122.940021,13.7928125 121.653747,2.11784375 C111.631532,2.487125 99.4812895,8.799625 92.2932895,17.2268125 C85.8493105,24.6976562 80.1903368,36.6440625 81.7256684,48.0791562 C92.8985947,48.9565937 104.330037,42.3915937 111.278437,33.9770313 L111.278437,33.9770313 Z" id="Fill-1" sketch:type="MSShapeGroup"></path>
            <path d="M279.058337,61.1586563 L277.296016,67.5469062 C274.556379,66.2749375 271.428968,65.637375 267.904326,65.637375 C262.576379,65.637375 258.345547,67.2565312 255.214984,70.485375 C251.888958,73.8625625 250.227521,78.5874687 250.227521,84.6600938 C250.227521,90.4865312 251.766005,95.053625 254.846126,98.3582187 C257.9294,101.662813 262.207521,103.316688 267.686795,103.316688 C271.548768,103.316688 274.802284,102.704375 277.444189,101.47975 L278.837653,107.795406 C275.902553,109.215719 271.722163,109.925875 266.293332,109.925875 C258.856274,109.925875 252.964005,107.748062 248.610221,103.389281 C244.111416,98.8853125 241.863589,92.7653437 241.863589,85.029375 C241.863589,77.0977187 244.306879,70.7315625 249.199763,65.9309062 C253.941321,61.3290937 260.079495,59.0281875 267.614284,59.0281875 C272.601747,59.0281875 276.416432,59.7383437 279.058337,61.1586563" id="Fill-2" sketch:type="MSShapeGroup"></path>
            <path d="M317.8893,91.0988438 C317.8893,96.5780937 316.322442,101.072594 313.195032,104.594969 C309.916295,108.212031 305.562511,110.020563 300.136832,110.020563 C294.903463,110.020563 290.732532,108.287781 287.627189,104.81275 C284.521847,101.344031 282.970753,96.9663125 282.970753,91.6859063 C282.970753,86.1624688 284.572289,81.6395625 287.775363,78.1171875 C290.978437,74.5979688 295.294389,72.8367813 300.723221,72.8367813 C305.956589,72.8367813 310.1622,74.5727188 313.340053,78.0445938 C316.372884,81.418625 317.8893,85.7710938 317.8893,91.0988438 L317.8893,91.0988438 Z M309.673542,91.3071563 C309.673542,88.0435937 308.9642,85.2376875 307.545516,82.8989063 C305.884079,80.0709063 303.510147,78.6569063 300.430026,78.6569063 C297.249021,78.6569063 294.830953,80.0709063 293.166363,82.8989063 C291.747679,85.2376875 291.038337,88.0909375 291.038337,91.4523438 C291.038337,94.7190625 291.747679,97.5218125 293.166363,99.86375 C294.878242,102.69175 297.274242,104.102594 300.357516,104.102594 C303.387195,104.102594 305.761126,102.6665 307.473005,99.7911563 C308.938979,97.401875 309.673542,94.573875 309.673542,91.3071563 L309.673542,91.3071563 Z" id="Fill-3" sketch:type="MSShapeGroup"></path>
            <path d="M355.225916,109.2315 L347.344337,109.2315 L347.344337,88.7947813 C347.344337,82.4980625 344.938879,79.348125 340.124811,79.348125 C337.769795,79.348125 335.852995,80.2160937 334.380716,81.948875 C332.908437,83.6816563 332.170721,85.7205938 332.170721,88.0625312 L332.170721,109.2315 L324.289142,109.2315 L324.289142,83.7384688 C324.289142,80.6043125 324.191411,77.201875 323.995947,73.528 L330.960111,73.528 L331.325816,79.045125 L331.5465,79.045125 C332.473374,77.34075 333.841616,75.9299063 335.651226,74.8094375 C337.801321,73.4964375 340.197321,72.8367813 342.836074,72.8367813 C346.158947,72.8367813 348.920653,73.9130625 351.121189,76.065625 C353.857674,78.7074063 355.225916,82.6464063 355.225916,87.8794688 L355.225916,109.2315" id="Fill-4" sketch:type="MSShapeGroup"></path>
            <path d="M385.604674,98.9295 C385.604674,102.253031 384.381453,104.916906 381.935011,106.917969 C379.491721,108.922188 376.115253,109.922719 371.811911,109.922719 C367.751321,109.922719 364.302342,109.121031 361.468126,107.511344 L363.157937,101.665969 C365.907032,103.291438 368.823216,104.102594 371.912795,104.102594 C375.982842,104.102594 378.019442,102.616 378.019442,99.6365 C378.019442,98.3203437 377.578074,97.2345938 376.695337,96.37925 C375.815753,95.5270625 374.248895,94.6811875 371.997916,93.8510938 C365.635905,91.5091563 362.451747,88.0940938 362.451747,83.5995938 C362.451747,80.5254063 363.624526,77.9625313 365.970084,75.914125 C368.312489,73.8625625 371.414679,72.8367813 375.2735,72.8367813 C378.788684,72.8367813 381.793142,73.5437813 384.283721,74.9577813 L382.593911,80.5885313 C380.292489,79.2345 377.868116,78.5590625 375.323942,78.5590625 C373.659353,78.5590625 372.363621,78.9504375 371.433595,79.7300312 C370.503568,80.5127813 370.040132,81.5133125 370.040132,82.7347813 C370.040132,83.95625 370.528789,84.9599375 371.506105,85.7395312 C372.3384,86.4717813 373.9557,87.2797812 376.3517,88.1572187 C382.5214,90.5023125 385.604674,94.094125 385.604674,98.9295" id="Fill-5" sketch:type="MSShapeGroup"></path>
            <path d="M422.957053,109.2315 L415.989737,109.2315 L415.548368,103.796437 L415.403347,103.796437 C412.909616,107.946906 409.142221,110.020562 404.104316,110.020562 C400.582826,110.020562 397.770679,108.922187 395.667874,106.715969 C393.174142,104.023687 391.9257,99.9615937 391.9257,94.5296875 L391.9257,73.528 L399.807279,73.528 L399.807279,93.223 C399.807279,100.081531 402.1686,103.512375 406.891242,103.512375 C410.428495,103.512375 412.8907,101.798531 414.2684,98.3676875 C414.612037,97.4870937 414.782279,96.4834063 414.782279,95.3534687 L414.782279,73.528 L422.663858,73.528 L422.663858,98.9484375 C422.663858,102.325625 422.761589,105.756469 422.957053,109.2315" id="Fill-6" sketch:type="MSShapeGroup"></path>
            <path d="M431.617332,57.153375 L439.498911,57.153375 L439.498911,109.2315 L431.617332,109.2315 L431.617332,57.153375 Z" id="Fill-7" sketch:type="MSShapeGroup"></path>
            <path d="M467.487974,79.4459687 L458.777253,79.4459687 L458.777253,96.795875 C458.777253,101.208312 460.312584,103.414531 463.3864,103.414531 C464.801932,103.414531 465.974711,103.29775 466.901584,103.064188 L467.119116,109.048437 C465.555411,109.629187 463.503047,109.922719 460.962026,109.922719 C457.834616,109.922719 455.391326,108.969531 453.632158,107.06 C451.872989,105.150469 450.993405,101.943719 450.993405,97.43975 L450.993405,79.4459687 L445.772647,79.4459687 L445.772647,73.528 L450.993405,73.528 L450.993405,66.9977187 L458.777253,64.6494687 L458.777253,73.528 L467.487974,73.528 L467.487974,79.4459687" id="Fill-8" sketch:type="MSShapeGroup"></path>
            <path d="M501.681416,109.2315 L494.565926,109.2315 L493.979537,105.118906 L493.758853,105.118906 C491.312411,108.388781 487.838211,110.020563 483.342558,110.020563 C479.966089,110.020563 477.251674,108.944281 475.199311,106.791719 C473.339258,104.831688 472.412384,102.407688 472.412384,99.5197188 C472.412384,95.1609375 474.2283,91.83425 477.863284,89.5301875 C481.501421,87.2292813 486.611837,86.1025 493.197684,86.153 L493.197684,85.4933437 C493.197684,80.8063125 490.732326,78.4580625 485.807916,78.4580625 C482.292732,78.4580625 479.196847,79.3418125 476.513958,81.103 L474.906116,75.9078125 C478.219532,73.8625625 482.286426,72.8367813 487.116258,72.8367813 C496.425979,72.8367813 501.079263,77.7542188 501.079263,87.5859375 L501.079263,100.72225 C501.079263,104.291969 501.281032,107.129438 501.681416,109.2315 L501.681416,109.2315 Z M493.462505,96.9631562 L493.462505,91.4775937 C484.682426,91.3324063 480.293963,93.7216875 480.293963,98.6454375 C480.293963,100.498156 480.804689,101.886906 481.829295,102.814844 C482.8539,103.739625 484.146479,104.203594 485.710184,104.203594 C487.463047,104.203594 489.086653,103.654406 490.571542,102.559188 C492.059584,101.460813 492.977,100.059438 493.317484,98.3519063 C493.415216,97.9636875 493.462505,97.4997187 493.462505,96.9631562 L493.462505,96.9631562 Z" id="Fill-9" sketch:type="MSShapeGroup"></path>
            <path d="M540.531295,109.2315 L532.649716,109.2315 L532.649716,88.7947813 C532.649716,82.4980625 530.244258,79.348125 525.433342,79.348125 C523.075174,79.348125 521.161526,80.2160937 519.689247,81.948875 C518.213816,83.6816563 517.479253,85.7205938 517.479253,88.0625312 L517.479253,109.2315 L509.597674,109.2315 L509.597674,83.7384688 C509.597674,80.6043125 509.496789,77.201875 509.301326,73.528 L516.265489,73.528 L516.631195,79.045125 L516.851879,79.045125 C517.778753,77.34075 519.150147,75.9299063 520.956605,74.8094375 C523.109853,73.4964375 525.505853,72.8367813 528.141453,72.8367813 C531.464326,72.8367813 534.226032,73.9130625 536.426568,76.065625 C539.166205,78.7074063 540.531295,82.6464063 540.531295,87.8794688 L540.531295,109.2315" id="Fill-10" sketch:type="MSShapeGroup"></path>
            <path d="M566.890447,79.4459687 L558.179726,79.4459687 L558.179726,96.795875 C558.179726,101.208312 559.715058,103.414531 562.792026,103.414531 C564.204405,103.414531 565.377184,103.29775 566.304058,103.064188 L566.521589,109.048437 C564.957884,109.629187 562.905521,109.922719 560.3645,109.922719 C557.237089,109.922719 554.7938,108.969531 553.034632,107.06 C551.275463,105.150469 550.395879,101.943719 550.395879,97.43975 L550.395879,79.4459687 L545.175121,79.4459687 L545.175121,73.528 L550.395879,73.528 L550.395879,66.9977187 L558.179726,64.6494687 L558.179726,73.528 L566.890447,73.528 L566.890447,79.4459687" id="Fill-11" sketch:type="MSShapeGroup"></path>
            <path d="M596.150021,98.9295 C596.150021,102.253031 594.923647,104.916906 592.480358,106.917969 C590.033916,108.922188 586.6606,109.922719 582.357258,109.922719 C578.296668,109.922719 574.847689,109.121031 572.013474,107.511344 L573.703284,101.665969 C576.449226,103.291438 579.368563,104.102594 582.458142,104.102594 C586.528189,104.102594 588.564789,102.616 588.564789,99.6365 C588.564789,98.3203437 588.120268,97.2345938 587.240684,96.37925 C586.357947,95.5270625 584.791089,94.6811875 582.540111,93.8510938 C576.1781,91.5091563 572.997095,88.0940938 572.997095,83.5995938 C572.997095,80.5254063 574.166721,77.9625313 576.512279,75.914125 C578.854684,73.8625625 581.956874,72.8367813 585.815695,72.8367813 C589.334032,72.8367813 592.335337,73.5437813 594.825916,74.9577813 L593.139258,80.5885313 C590.834684,79.2345 588.413463,78.5590625 585.869289,78.5590625 C584.2047,78.5590625 582.908968,78.9504375 581.978942,79.7300312 C581.048916,80.5127813 580.582326,81.5133125 580.582326,82.7347813 C580.582326,83.95625 581.074137,84.9599375 582.051453,85.7395312 C582.883747,86.4717813 584.497895,87.2797812 586.897047,88.1572187 C593.063595,90.5023125 596.150021,94.094125 596.150021,98.9295" id="Fill-12" sketch:type="MSShapeGroup"></path>
            <path d="M282.157374,193.69275 L274.014126,193.69275 L260.369537,170.724719 C256.699874,164.513219 253.767926,158.885625 251.564237,153.845094 L251.346705,153.920844 C251.655663,159.447437 251.813295,166.441688 251.813295,174.90675 L251.813295,193.69275 L244.524411,193.69275 L244.524411,144.180656 L253.326558,144.180656 L266.971147,166.864625 C270.149,172.151344 272.961147,177.6085 275.407589,183.23925 L275.555763,183.1635 C275.029274,177.586406 274.767605,170.734187 274.767605,162.606844 L274.767605,144.180656 L282.157374,144.180656 L282.157374,193.69275" id="Fill-13" sketch:type="MSShapeGroup"></path>
            <path d="M321.076611,174.158719 C321.076611,175.575875 320.975726,176.77525 320.783416,177.753688 L296.940063,177.753688 C297.037795,181.279219 298.188505,183.974656 300.392195,185.833687 C302.400421,187.500188 304.998189,188.330281 308.1855,188.330281 C311.713295,188.330281 314.922674,187.768469 317.813637,186.641687 L319.065232,192.171437 C315.688763,193.645406 311.703837,194.383969 307.1073,194.383969 C301.580737,194.383969 297.239563,192.755344 294.083779,189.498094 C290.927995,186.237687 289.351679,181.866281 289.351679,176.377563 C289.351679,170.989844 290.820805,166.507969 293.759058,162.931938 C296.842332,159.109719 301.003805,157.200187 306.243479,157.200187 C311.382268,157.200187 315.272616,159.109719 317.917674,162.925625 C320.023632,165.961938 321.076611,169.70525 321.076611,174.158719 L321.076611,174.158719 Z M313.491379,172.100844 C313.538668,169.749437 313.021637,167.719969 311.943437,166.006125 C310.572042,163.799906 308.462932,162.698375 305.619258,162.698375 C303.018337,162.698375 300.909226,163.777813 299.291926,165.930375 C297.967821,167.644219 297.182816,169.702094 296.940063,172.100844 L313.491379,172.100844 L313.491379,172.100844 Z" id="Fill-14" sketch:type="MSShapeGroup"></path>
            <path d="M346.442684,163.907219 L337.731963,163.907219 L337.731963,181.257125 C337.731963,185.669562 339.267295,187.872625 342.341111,187.872625 C343.756642,187.872625 344.929421,187.759 345.856295,187.525438 L346.073826,193.509687 C344.510121,194.090438 342.457758,194.383969 339.916737,194.383969 C336.789326,194.383969 334.346037,193.430781 332.586868,191.52125 C330.8277,189.611719 329.948116,186.404969 329.948116,181.897844 L329.948116,163.907219 L324.727358,163.907219 L324.727358,157.98925 L329.948116,157.98925 L329.948116,151.458969 L337.731963,149.110719 L337.731963,157.98925 L346.442684,157.98925 L346.442684,163.907219" id="Fill-15" sketch:type="MSShapeGroup"></path>
            <path d="M402.124463,157.98925 L390.976758,193.69275 L383.716247,193.69275 L379.097642,178.195562 C377.924863,174.329156 376.969616,170.488 376.238205,166.668937 L376.090032,166.668937 C375.405911,170.585844 374.453816,174.427 373.230595,178.195562 L368.318795,193.69275 L360.985774,193.69275 L350.500121,157.98925 L358.640216,157.98925 L362.672432,174.944625 C363.649747,178.956219 364.453668,182.775281 365.093653,186.3955 L365.238674,186.3955 C365.825063,183.409688 366.802379,179.619031 368.170621,175.017219 L373.230595,157.98925 L379.684032,157.98925 L384.523321,174.651094 C385.6961,178.713188 386.651347,182.626937 387.385911,186.3955 L387.603442,186.3955 C388.142542,182.724781 388.949616,178.811031 390.024663,174.651094 L394.350074,157.98925 L402.124463,157.98925" id="Fill-16" sketch:type="MSShapeGroup"></path>
            <path d="M439.300295,175.560094 C439.300295,181.036188 437.736589,185.533844 434.602874,189.053063 C431.327289,192.673281 426.976658,194.481813 421.547826,194.481813 C416.314458,194.481813 412.146679,192.745875 409.038184,189.274 C405.932842,185.805281 404.381747,181.427563 404.381747,176.147156 C404.381747,170.623719 405.980132,166.097656 409.186358,162.578438 C412.389432,159.059219 416.705384,157.298031 422.134216,157.298031 C427.367584,157.298031 431.573195,159.033969 434.751047,162.505844 C437.783879,165.879875 439.300295,170.232344 439.300295,175.560094 L439.300295,175.560094 Z M431.084537,175.768406 C431.084537,172.501688 430.375195,169.698937 428.959663,167.357 C427.295074,164.532156 424.921142,163.118156 421.841021,163.118156 C418.660016,163.118156 416.238795,164.532156 414.577358,167.357 C413.158674,169.698937 412.449332,172.549031 412.449332,175.913594 C412.449332,179.180313 413.158674,181.983063 414.577358,184.321844 C416.289237,187.149844 418.688389,188.563844 421.768511,188.563844 C424.798189,188.563844 427.172121,187.12775 428.884,184.24925 C430.349974,181.863125 431.084537,179.035125 431.084537,175.768406 L431.084537,175.768406 Z" id="Fill-17" sketch:type="MSShapeGroup"></path>
            <path d="M464.332189,164.977188 C463.544032,164.854094 462.708584,164.794125 461.822695,164.794125 C459.020005,164.794125 456.850995,165.845156 455.328274,167.947219 C454.001016,169.80625 453.335811,172.1545 453.335811,174.988812 L453.335811,193.69275 L445.454232,193.69275 L445.454232,169.228656 C445.454232,165.116062 445.388026,161.366438 445.255616,157.98925 L452.153574,157.98925 L452.446768,164.828844 L452.667453,164.828844 C453.499747,162.490063 454.8207,160.61525 456.630311,159.20125 C458.389479,157.932438 460.296821,157.298031 462.349184,157.298031 C463.083747,157.298031 463.7458,157.348531 464.332189,157.443219 L464.332189,164.977188" id="Fill-18" sketch:type="MSShapeGroup"></path>
            <path d="M501.725553,193.69275 L492.021753,193.69275 L481.220837,177.387563 L478.206921,181.061437 L478.206921,193.69275 L470.325342,193.69275 L470.325342,141.614625 L478.206921,141.614625 L478.206921,173.934625 L478.351942,173.934625 C479.332411,172.369125 480.287658,170.996156 481.220837,169.822031 L490.407605,157.98925 L499.890721,157.98925 L486.756858,172.681594 L501.725553,193.69275" id="Fill-19" sketch:type="MSShapeGroup"></path>
        </g>
    </g>
</svg>