<?xml version="1.0" encoding="UTF-8" standalone="no"?>
<svg width="252px" height="207px" viewBox="0 0 252 207" version="1.1" xmlns="http://www.w3.org/2000/svg" xmlns:xlink="http://www.w3.org/1999/xlink" xmlns:sketch="http://www.bohemiancoding.com/sketch/ns">
    <!-- Generator: Sketch 3.4.2 (15855) - http://www.bohemiancoding.com/sketch -->
    <title>Slice 5</title>
    <desc>Created with Sketch.</desc>
    <defs></defs>
    <g id="Page-1" stroke="none" stroke-width="1" fill="none" fill-rule="evenodd" sketch:type="MSPage">
        <path d="M173.6336,44 L76.3664,44 L57,77.6464 L57,89.3133867 C57,95.1069867 60.3147733,100.13536 65.13824,102.635947 L65.13824,170.848107 L138.2464,170.848107 L138.2464,96.3527467 C140.774187,101.0928 145.768107,104.315093 151.490987,104.315093 C157.228373,104.315093 162.21504,101.085547 164.751893,96.3527467 C167.272427,101.0928 172.259093,104.315093 177.998293,104.315093 L177.998293,170.848107 L184.86176,170.848107 L184.86176,102.6432 C189.69248,100.142613 193,95.11424 193,89.32064 L193,77.6536533 L173.6336,44 Z M88.0043733,79.2475733 L97.5950933,50.07104 L112.83072,50.07104 L109.657387,79.07712 L109.657387,87.42208 C109.657387,93.3933867 104.804907,98.2440533 98.8336,98.2440533 C92.8622933,98.2440533 88.0116267,93.3933867 88.0116267,87.42208 L88.0116267,79.2475733 L88.0043733,79.2475733 Z M131.785493,127.888427 L72.00896,127.888427 L72.00896,104.315093 C77.7463467,104.315093 82.7330133,101.085547 85.25536,96.3527467 C87.78496,101.0928 92.7770667,104.315093 98.5090133,104.315093 C104.231893,104.315093 109.225813,101.085547 111.7536,96.3527467 C114.275947,101.0928 119.27712,104.315093 125,104.315093 C127.444373,104.315093 129.745493,103.705813 131.77824,102.657707 L131.77824,127.888427 L131.785493,127.888427 Z M161.982933,87.42208 C161.982933,93.3933867 157.130453,98.2440533 151.159147,98.2440533 C145.18784,98.2440533 140.33536,93.3933867 140.33536,87.42208 L140.33536,79.07712 L137.16928,50.07104 L152.41216,50.07104 L161.995627,79.2475733 L161.995627,87.42208 L161.982933,87.42208 Z" fill="#3AC4DC" sketch:type="MSShapeGroup"></path>
    </g>
</svg>