<?xml version="1.0" encoding="UTF-8" standalone="no"?>
<svg width="214px" height="214px" viewBox="0 0 214 214" version="1.1" xmlns="http://www.w3.org/2000/svg" xmlns:xlink="http://www.w3.org/1999/xlink" xmlns:sketch="http://www.bohemiancoding.com/sketch/ns">
    <!-- Generator: Sketch 3.4 (15575) - http://www.bohemiancoding.com/sketch -->
    <title>Slice 1</title>
    <desc>Created with Sketch.</desc>
    <defs></defs>
    <g id="Page-1" stroke="none" stroke-width="1" fill="none" fill-rule="evenodd" sketch:type="MSPage">
        <path d="M58,149.09312 L58,170.071147 L154.52,170.071147 L154.52,149.09312 L154.52,149.70112 L154.52,144.991147 L154.52,144.38112 C154.52,144.38112 154.52,144.38112 154.52,144.231147 C154.368,136.631147 152.848,131.311147 145.098027,126.4512 C134.76,119.911147 123.36,114.441173 123.36,114.441173 L114.24,143.321173 L108.92,128.121173 C118.339947,115.0512 108.309973,114.441173 106.488,114.2912 L106.488,114.2912 L106.488,114.2912 C104.668053,114.2912 94.6299733,114.8992 104.058027,128.121173 L98.7380267,143.321173 L89.6180267,114.441173 C89.6180267,114.441173 78.0680533,120.06112 67.88,126.4512 C60.128,131.311147 58.608,136.631147 58.4580267,144.231147 C58.4580267,144.231147 58.4580267,144.231147 58.4580267,144.38112 L58.4580267,144.991147 L58.4580267,149.70112 C58,149.693013 58,149.54304 58,149.09312 L58,149.09312 Z M154.359893,144.373013 C154.359893,144.22304 154.359893,144.22304 154.359893,144.373013 C154.359893,144.073067 154.359893,144.22304 154.359893,144.373013 L154.359893,144.373013 Z M58,144.22304 L58,144.22304 C58,144.22304 58,144.073067 58,144.22304 L58,144.22304 Z M137.189973,59.2530133 C136.72992,59.10304 136.128,58.9530667 135.669973,59.10304 L128.979947,60.4730667 C127.459947,58.34304 125.479893,56.37312 123.36,54.6930133 L125.029973,48.1549867 C125.32992,46.9349333 124.728,45.7250133 123.509973,45.1149867 L117.429973,42.3749333 L117.429973,42.3749333 C116.20992,41.9169067 115,42.22496 114.24,43.2869333 L110.44,49.06496 C107.858027,48.6069333 105.12,48.6069333 102.538027,49.06496 L99.04,43.2869333 C98.7380267,42.82688 98.28,42.5269333 97.8199467,42.22496 C97.20992,41.9250133 96.44992,41.9250133 95.8398933,42.22496 L89.4599467,44.66304 C88.2398933,45.1230933 87.64,46.3330133 87.9399467,47.5530667 L89.4599467,54.2430933 C87.32992,55.7630933 85.5099733,57.58304 83.84,59.7130667 L77.2999467,58.0430933 C76.0798933,57.74112 74.8699733,58.34304 74.2599467,59.5630933 L71.5198933,65.6430933 C71.0618667,66.86112 71.36992,68.22304 72.4318933,68.8330667 L78.20992,72.6330667 C77.7518933,75.2130133 77.7518933,77.9530667 78.20992,80.5330133 L72.4318933,84.0330667 C71.36992,84.6430933 70.9118933,86.01312 71.36992,87.22304 L73.808,93.6050133 C74.1099733,94.2130133 74.568,94.82304 75.1780267,94.9730133 C75.63808,95.1250133 76.24,95.2749867 76.6980267,95.1250133 L83.3880533,93.6050133 C84.9080533,95.58304 86.728,97.5549867 88.7080533,99.0749867 L87.03808,105.765013 C86.7361067,106.98304 87.3380267,108.194987 88.55808,108.805013 L94.63808,111.54304 L94.63808,111.54304 C95.8561067,112.003093 97.0680533,111.693013 97.8280533,110.633067 L101.47808,104.853013 C104.058027,105.313067 106.79808,105.313067 109.378027,105.005013 L112.87808,110.78304 C113.178027,111.243093 113.63808,111.54304 114.096107,111.845013 C114.706133,112.14496 115.466133,112.14496 116.07616,111.845013 L122.456107,109.406933 C123.67616,108.94688 124.27808,107.734933 123.976107,106.516907 L122.60608,99.82688 C124.736107,98.30688 126.55808,96.4869333 128.228053,94.3569067 L134.91808,96.02688 C136.136107,96.3268267 137.348053,95.7269333 137.95808,94.50688 L140.696107,88.42688 C141.15616,87.2068267 140.696107,85.9969067 139.63616,85.2369067 L133.856107,81.58688 C134.31616,79.0069333 134.31616,76.26688 134.00608,73.6869333 L139.786133,70.18688 C140.84608,69.5768533 141.306133,68.2068267 140.84608,66.9969067 L138.408,60.6149333 C138.24992,60.0130133 137.8,59.41312 137.189973,59.2530133 L137.189973,59.2530133 Z M112.109973,91.6330667 C104.04992,94.9730133 94.7799467,91.02304 91.5899733,82.97312 C88.248,74.9130667 92.2,65.6430933 100.24992,62.45312 C108.309973,59.1111467 117.579947,63.06112 120.76992,71.1130667 C123.959893,79.17312 120.159893,88.4430933 112.109973,91.6330667 L112.109973,91.6330667 Z" fill="#000000" sketch:type="MSShapeGroup"></path>
    </g>
</svg>