<?xml version="1.0" encoding="UTF-8" standalone="no"?>
<svg width="214px" height="214px" viewBox="0 0 214 214" version="1.1" xmlns="http://www.w3.org/2000/svg" xmlns:xlink="http://www.w3.org/1999/xlink" xmlns:sketch="http://www.bohemiancoding.com/sketch/ns">
    <!-- Generator: Sketch 3.4 (15575) - http://www.bohemiancoding.com/sketch -->
    <title>Slice 1</title>
    <desc>Created with Sketch.</desc>
    <defs></defs>
    <g id="Page-1" stroke="none" stroke-width="1" fill="none" fill-rule="evenodd" sketch:type="MSPage">
        <path d="M163.068,93.8808 C159.1584,93.8808 155.4096,94.536 151.9032,95.7264 C149.184,89.6904 145.9968,82.6296 142.2744,74.3424 L144.648,67.8072 L152.8224,67.6584 L152.8224,60.8232 L122.0808,60.8232 C119.3904,64.5 123.168,64.4904 136.7808,67.5072 L134.4096,74.1936 L73.668,74.1936 C77.7552,59.904 75.4512,60.9456 93.8616,60.9744 L93.8616,54 C68.5128,54.2424 72.9096,51.384 59.3352,95.052 C57.252,94.668 55.116,94.452 52.9224,94.452 C33.6648,94.452 18,110.1264 18,129.384 C18,148.6392 33.6648,164.304 52.9224,164.304 C72.1776,164.304 87.852,148.6392 87.852,129.384 C87.852,114.9744 79.0776,102.5712 66.5904,97.2456 C67.3488,94.8552 68.1648,92.304 69.048,89.5776 C120.1416,143.4648 100.968,134.7264 128.4648,135.8232 L128.8512,135.8232 C132.1032,151.7328 146.2128,163.7424 163.068,163.7424 C182.3256,163.7424 198,148.0776 198,128.82 C198,109.5552 182.3352,93.8808 163.068,93.8808 L163.068,93.8808 Z M79.6776,129.384 C79.6776,144.1392 67.6776,156.1392 52.9224,156.1392 C38.1648,156.1392 26.1648,144.1392 26.1648,129.384 C26.1648,114.6264 38.1648,102.6264 52.9224,102.6264 C54.252,102.6264 55.5552,102.7296 56.8416,102.9168 C48.3192,129.7968 49.3416,126.7392 49.284,129 C49.248,130.9104 50.784,132.4296 52.7256,132.5616 C56.2032,132.204 55.416,132.7872 64.1064,105.0936 C73.2936,109.3296 79.6776,118.62 79.6776,129.384 L79.6776,129.384 Z M114.168,127.7136 L71.916,81.6648 L131.352,81.5616 L114.168,127.7136 Z M128.148,128.6808 L121.6512,128.6616 L138.5064,84.4032 L145.0512,98.8968 C134.9616,105 128.1936,116.0616 128.148,128.6808 L128.148,128.6808 Z M148.4448,106.4232 L158.532,128.7744 L136.3128,128.7072 C136.3584,119.3904 141.1776,111.1872 148.4448,106.4232 L148.4448,106.4232 Z M163.068,155.568 C150.732,155.568 140.3256,147.168 137.2416,135.7872 C165.084,135.8136 167.568,137.2392 167.9616,132.4104 C167.9256,131.004 167.4,130.0392 155.2776,103.2168 C157.7448,102.468 160.3584,102.0552 163.068,102.0552 C177.8256,102.0552 189.8256,114.0552 189.8256,128.8104 C189.8256,143.568 177.8256,155.568 163.068,155.568 L163.068,155.568 Z" fill="#000000" sketch:type="MSShapeGroup"></path>
    </g>
</svg>