<?xml version="1.0" encoding="UTF-8" standalone="no"?>
<svg width="285px" height="214px" viewBox="0 0 285 214" version="1.1" xmlns="http://www.w3.org/2000/svg" xmlns:xlink="http://www.w3.org/1999/xlink" xmlns:sketch="http://www.bohemiancoding.com/sketch/ns">
    <!-- Generator: Sketch 3.4.2 (15855) - http://www.bohemiancoding.com/sketch -->
    <title>Slice 1</title>
    <desc>Created with Sketch.</desc>
    <defs></defs>
    <g id="Page-1" stroke="none" stroke-width="1" fill="none" fill-rule="evenodd" sketch:type="MSPage">
        <g sketch:type="MSLayerGroup" transform="translate(21.000000, 38.000000)" fill="#000000">
            <path d="M26.0394843,62.5274038 L7.13629717,72.1534046 L7.13629717,106.017215 L2.06408595,106.017215 C0.924838512,106.017215 0,106.942053 0,108.078101 L0,112.718294 C0,113.867142 0.924838512,114.77918 2.06408595,114.77918 L7.13629717,114.77918 L7.13629717,118.568137 L30.6380758,118.568137 C30.4396676,117.329686 30.3372633,116.068833 30.3372633,114.77918 C30.3372633,101.866642 40.8016991,91.4022062 53.7142368,91.4022062 C66.6139739,91.4022062 77.0784097,101.866642 77.0784097,114.77918 C77.0784097,116.068833 76.9792056,117.329686 76.7647966,118.568137 L82.4034314,118.568137 L82.4034314,30.2124581 L50.1012863,30.2124581 L26.0394843,62.5274038 Z M77.0784097,35.0382591 L77.0784097,64.2522756 L32.4013493,64.2522756 L52.9782061,35.0382591 L77.0784097,35.0382591 L77.0784097,35.0382591 Z" id="Fill-1" sketch:type="MSShapeGroup"></path>
            <path d="M235.885023,2.9633234 L91.0053897,2.9633234 C88.7300949,2.9633234 86.8772177,4.81300042 86.8772177,7.08829517 L86.8772177,82.6274408 L240.009995,82.6274408 L240.009995,7.1010957 C240.009995,4.82580096 238.160317,2.9633234 235.885023,2.9633234 L235.885023,2.9633234 Z" id="Fill-2" sketch:type="MSShapeGroup"></path>
            <path d="M86.8772177,112.804697 L86.8772177,116.929669 L179.444272,116.929669 C179.38347,116.216039 179.345068,115.50561 179.345068,114.77918 C179.345068,101.866642 189.806304,91.4022062 202.709241,91.4022062 C215.621779,91.4022062 226.083015,101.866642 226.083015,114.77918 C226.083015,115.50561 226.047813,116.216039 225.98381,116.929669 L240.009995,116.929669 L240.009995,88.3044772 L86.8772177,88.3044772 L86.8772177,112.804697 Z" id="Fill-3" sketch:type="MSShapeGroup"></path>
            <path d="M53.7142368,94.928753 C42.7505802,94.928753 33.8638102,103.805923 33.8638102,114.77918 C33.8638102,125.742836 42.7505802,134.629606 53.7142368,134.629606 C64.6778933,134.629606 73.5646634,125.742836 73.5646634,114.77918 C73.5646634,103.815523 64.6778933,94.928753 53.7142368,94.928753 L53.7142368,94.928753 Z M53.7142368,120.731428 C50.4276999,120.731428 47.7523885,118.068917 47.7523885,114.77918 C47.7523885,111.492643 50.4148994,108.817331 53.7142368,108.817331 C57.0007736,108.817331 59.6664846,111.492643 59.6664846,114.77918 C59.6664846,118.068917 57.0007736,120.731428 53.7142368,120.731428 L53.7142368,120.731428 Z" id="Fill-4" sketch:type="MSShapeGroup"></path>
            <path d="M202.734842,94.928753 C191.771186,94.928753 182.881216,103.805923 182.881216,114.77918 C182.881216,125.742836 191.771186,134.629606 202.734842,134.629606 C213.695299,134.629606 222.585269,125.742836 222.585269,114.77918 C222.572468,103.815523 213.682498,94.928753 202.734842,94.928753 L202.734842,94.928753 Z M202.734842,120.731428 C199.445105,120.731428 196.782594,118.068917 196.782594,114.77918 C196.782594,111.492643 199.445105,108.817331 202.734842,108.817331 C206.021379,108.817331 208.696691,111.492643 208.696691,114.77918 C208.696691,118.068917 206.021379,120.731428 202.734842,120.731428 L202.734842,120.731428 Z" id="Fill-5" sketch:type="MSShapeGroup"></path>
        </g>
    </g>
</svg>