<?xml version="1.0" encoding="UTF-8" standalone="no"?>
<svg width="252px" height="207px" viewBox="0 0 252 207" version="1.1" xmlns="http://www.w3.org/2000/svg" xmlns:xlink="http://www.w3.org/1999/xlink" xmlns:sketch="http://www.bohemiancoding.com/sketch/ns">
    <!-- Generator: Sketch 3.4.2 (15855) - http://www.bohemiancoding.com/sketch -->
    <title>Slice 5</title>
    <desc>Created with Sketch.</desc>
    <defs></defs>
    <g id="Page-1" stroke="none" stroke-width="1" fill="none" fill-rule="evenodd" sketch:type="MSPage">
        <path d="M175.655567,37.7852281 C173.665419,36.371968 171.107696,36.9365482 169.686941,38.9161981 C169.117547,39.764878 167.982398,40.6117483 166.559824,40.895848 C164.855282,41.4604282 162.865133,41.7445279 160.874984,42.026818 L154.053177,42.8736883 C152.632422,43.157788 150.358486,43.157788 148.368337,44.5710481 C145.810614,46.2684078 144.957434,48.8126379 144.389859,50.7922878 C144.104253,51.356868 144.104253,51.9214482 143.820466,52.487838 L143.536678,52.487838 L141.830317,52.487838 C141.54653,52.487838 141.54653,52.487838 141.54653,52.7701281 L135.86169,111.015987 C135.86169,111.298277 135.577903,111.298277 135.577903,111.298277 L118.239597,111.298277 C117.95581,111.298277 117.95581,111.015987 117.95581,111.015987 L117.95581,81.8930576 C117.95581,81.6107675 117.670203,81.6107675 117.386416,81.6107675 L96.3516002,93.4850476 C96.067813,93.4850476 95.7840258,93.4850476 95.7840258,93.2027575 L95.7840258,81.8930576 C95.7840258,81.6107675 95.5002386,81.6107675 95.2164514,81.6107675 L66.2228599,98.0089276 L65.9390727,98.2930272 L65.9390727,111.015987 C65.9390727,111.298277 65.6552855,111.298277 65.6552855,111.298277 L54.2856063,111.298277 C54,111.298277 54,111.580567 54,111.580567 L54,169.260037 C54,169.542327 54.2856063,169.542327 54.2856063,169.542327 L187.309034,169.542327 C187.59464,169.542327 187.59464,169.260037 187.59464,169.260037 L187.59464,111.580567 C187.59464,111.298277 187.309034,111.298277 187.309034,111.298277 L160.874984,111.298277 C160.591197,111.298277 160.591197,111.298277 160.591197,111.015987 L154.906358,52.7701281 L154.62257,52.487838 L153.485603,52.487838 C153.199996,52.487838 153.199996,52.2055479 153.199996,51.9214482 C153.199996,51.6391581 153.485603,51.6391581 153.485603,51.356868 L153.76939,51.356868 C154.053177,51.356868 154.906358,51.0745779 155.473932,51.0745779 L162.29574,50.225898 C164.569675,49.9436079 167.129218,49.6595082 169.686941,48.8126379 C173.097844,47.6816679 175.655567,45.702018 177.078142,43.4400781 C178.21329,41.4604282 177.645716,38.9161981 175.655567,37.7852281 L175.655567,37.7852281 Z" id="Page-1-Copy-4" fill="#3AC4DC" sketch:type="MSShapeGroup"></path>
    </g>
</svg>