<?xml version="1.0" encoding="UTF-8" standalone="no"?>
<svg width="214px" height="214px" viewBox="0 0 214 214" version="1.1" xmlns="http://www.w3.org/2000/svg" xmlns:xlink="http://www.w3.org/1999/xlink" xmlns:sketch="http://www.bohemiancoding.com/sketch/ns">
    <!-- Generator: Sketch 3.4 (15575) - http://www.bohemiancoding.com/sketch -->
    <title>Slice 1</title>
    <desc>Created with Sketch.</desc>
    <defs></defs>
    <g id="Page-1" stroke="none" stroke-width="1" fill="none" fill-rule="evenodd" sketch:type="MSPage">
        <g sketch:type="MSLayerGroup" transform="translate(68.000000, 26.000000)" fill="#000000">
            <path d="M63.0769231,44.4127467 L63.0769231,7.9 C63.0769231,3.5392 59.5446154,0 55.1923077,0 L26.8076923,0 C22.4553846,0 18.9230769,3.5392 18.9230769,7.9 L18.9230769,44.4127467 C7.55661538,51.7207733 0,64.4913867 0,79 C0,93.5086133 7.55661538,106.279227 18.9230769,113.587253 L18.9230769,150.1 C18.9230769,154.4608 22.4553846,158 26.8076923,158 L55.1923077,158 C59.5446154,158 63.0769231,154.4608 63.0769231,150.1 L63.0769231,113.587253 C74.4433846,106.279227 82,93.5086133 82,79 C82,64.4913867 74.4433846,51.7207733 63.0769231,44.4127467 L63.0769231,44.4127467 Z M63.0769231,105.794693 C57.0741026,110.76432 49.3766154,113.76 41,113.76 C32.6233846,113.76 24.9258974,110.76432 18.9230769,105.794693 C11.2192821,99.4157067 6.30769231,89.7713867 6.30769231,79 C6.30769231,68.2286133 11.2192821,58.5906133 18.9230769,52.2053067 C24.9258974,47.23568 32.6233846,44.24 41,44.24 C49.3766154,44.24 57.0741026,47.23568 63.0769231,52.2053067 C70.7807179,58.5842933 75.6923077,68.2286133 75.6923077,79 C75.6923077,89.7713867 70.7807179,99.4157067 63.0769231,105.794693 L63.0769231,105.794693 Z" id="Fill-1" sketch:type="MSShapeGroup"></path>
            <path d="M66.2307692,63.2 C66.2307692,61.45568 64.8178462,60.04 63.0769231,60.04 C62.3956923,60.04 61.7628205,60.2612 61.2455897,60.6319733 L61.2455897,60.6235467 L41.2144615,74.9594133 L28.9018462,63.9984267 L28.8934359,64.0068533 C28.3362564,63.5117867 27.6129744,63.2 26.8076923,63.2 C25.0667692,63.2 23.6538462,64.61568 23.6538462,66.36 C23.6538462,67.2974667 24.0722564,68.1380267 24.7219487,68.7131467 L24.7135385,68.7215733 L38.9058462,81.3615733 L38.9142564,81.3531467 C39.4714359,81.8482133 40.1947179,82.16 41,82.16 C41.6812308,82.16 42.3141026,81.9388 42.8313333,81.5680267 L42.8313333,81.5764533 L64.9082564,65.7764533 L64.9082564,65.7680267 C65.7051282,65.1908 66.2307692,64.26176 66.2307692,63.2 L66.2307692,63.2 Z" id="Fill-2" sketch:type="MSShapeGroup"></path>
        </g>
    </g>
</svg>