<?xml version="1.0" encoding="UTF-8" standalone="no"?>
<svg width="70px" height="70px" viewBox="0 0 70 70" version="1.1" xmlns="http://www.w3.org/2000/svg" xmlns:xlink="http://www.w3.org/1999/xlink" xmlns:sketch="http://www.bohemiancoding.com/sketch/ns">
    <!-- Generator: Sketch 3.3.3 (12072) - http://www.bohemiancoding.com/sketch -->
    <title>Slice 2</title>
    <desc>Created with Sketch.</desc>
    <defs></defs>
    <g id="Page-1" stroke="none" stroke-width="1" fill="none" fill-rule="evenodd" sketch:type="MSPage">
        <g id="infrastructure-copy" sketch:type="MSLayerGroup" transform="translate(5.000000, 6.000000)" fill="#9DE334">
            <g id="Page-1" sketch:type="MSShapeGroup">
                <g id="strategy-and-projects">
                    <path d="M53.7976429,32.12875 L36.5091224,29.165625 C36.4518571,28.773125 36.3628469,28.394375 36.2414694,28.028125 L50.3922245,20.985625 C51.4522551,22.073125 53.1241531,22.399375 54.5364898,21.655625 C56.2625408,20.744375 56.9248265,18.606875 56.0204082,16.875 C55.1159898,15.145 52.9859694,14.47875 51.2611633,15.386875 C49.9092041,16.10125 49.2238878,17.568125 49.4205816,19.0025 L35.202602,26.0775 C34.8963571,25.679375 34.5490306,25.314375 34.1612449,24.995 L45.9267755,8.510625 C46.5106327,8.57875 47.1131633,8.520625 47.6945306,8.2775 C49.4909184,7.523125 50.3386939,5.451875 49.5886429,3.64625 C48.8392143,1.843125 46.774551,0.9925 44.9787857,1.745 C43.1830204,2.498125 42.3352449,4.570625 43.0852959,6.375 C43.2826122,6.85 43.5757857,7.251875 43.9274694,7.584375 L32.2285408,23.896875 C31.8998878,23.779375 31.5625204,23.680625 31.2120816,23.615625 L30.4782143,11.30375 C31.7231122,10.789375 32.6007653,9.560625 32.6007653,8.125 C32.6007653,6.226875 31.0676735,4.6875 29.1772959,4.6875 C27.2869184,4.6875 25.7538265,6.226875 25.7538265,8.125 C25.7538265,9.713125 26.8281735,11.045625 28.2847041,11.440625 L29.0073673,23.575625 C28.5772551,23.64 28.1614592,23.7425 27.7630918,23.885625 L14.9039184,7.356875 C15.4130816,6.65 15.7168367,5.783125 15.7168367,4.84375 C15.7168367,2.470625 13.8009388,0.546875 11.4375,0.546875 C9.07406122,0.546875 7.15816327,2.470625 7.15816327,4.84375 C7.15816327,7.216875 9.07406122,9.140625 11.4375,9.140625 C12.065551,9.140625 12.6599898,9.00125 13.1971633,8.7575 L25.821051,24.974375 C25.1525408,25.52125 24.5892245,26.1925 24.1734286,26.958125 L12.5946327,22.93625 C12.5977449,22.87375 12.6133061,22.815 12.6133061,22.750625 C12.6133061,20.73625 10.9862245,19.100625 8.97820408,19.100625 C6.97080612,19.100625 5.34372449,20.73625 5.34372449,22.750625 C5.34372449,24.768125 6.97080612,26.40125 8.97820408,26.40125 C10.1328469,26.40125 11.1499286,25.85 11.8153265,25.008125 L23.4644592,29.05375 C23.4078163,29.405625 23.3698469,29.76375 23.3698469,30.1325 C23.3698469,30.18125 6.61663265,35.74375 6.61663265,35.74375 C5.99418367,34.740625 4.89431633,34.0675 3.6307449,34.0675 C1.68434694,34.0675 0.106438776,35.651875 0.106438776,37.60625 C0.106438776,39.56125 1.68434694,41.145 3.6307449,41.145 C5.47755102,41.145 6.97578571,39.713125 7.12704082,37.898125 L23.7918673,32.448125 C24.1367041,33.379375 24.6807245,34.210625 25.3766224,34.88875 L18.1867143,45.41 C16.5932449,44.985625 14.939398,45.890625 14.451398,47.485625 C13.9528163,49.12 14.8653265,50.8525 16.494898,51.35375 C18.1238469,51.855625 19.8480306,50.936875 20.3484796,49.303125 C20.6279592,48.388125 20.4524286,47.45125 19.9706531,46.70875 L27.1916837,36.1425 C28.0394592,36.539375 28.9812245,36.7675 29.9783878,36.7675 C30.1072347,36.7675 30.2304796,36.755625 30.3574592,36.749375 L31.8332857,51.251875 C30.1526735,51.8325 28.9438776,53.42875 28.9438776,55.3125 C28.9438776,57.685625 30.8597755,59.609375 33.2232143,59.609375 C35.5866531,59.609375 37.502551,57.685625 37.502551,55.3125 C37.502551,53.209375 35.9962245,51.461875 34.0087449,51.09125 L32.5827143,36.23125 C33.4516531,35.856875 34.2166429,35.298125 34.8465612,34.608125 L45.0982959,45.303125 C44.774,45.82875 44.5835306,46.445625 44.5835306,47.109375 C44.5835306,49.0075 46.1166224,50.546875 48.007,50.546875 C49.8973776,50.546875 51.4304694,49.0075 51.4304694,47.109375 C51.4304694,45.21125 49.8973776,43.671875 48.007,43.671875 C47.6241939,43.671875 47.256949,43.7375 46.9127347,43.854375 C46.8847245,43.83625 36.0503776,32.7525 36.0503776,32.7525 C36.2377347,32.315625 36.3765408,31.854375 36.4680408,31.375625 L53.3980306,34.28 C53.6034388,36.178125 55.2031327,37.655625 57.1482857,37.655625 C59.2322449,37.655625 60.9215714,35.959375 60.9215714,33.866875 C60.9221939,31.775 59.2322449,30.078125 57.1482857,30.078125 C55.6886429,30.078125 54.4250714,30.911875 53.7976429,32.12875 L53.7976429,32.12875 Z" id="Shape"></path>
                </g>
            </g>
        </g>
    </g>
</svg>