<?xml version="1.0" encoding="UTF-8" standalone="no"?>
<svg width="285px" height="214px" viewBox="0 0 285 214" version="1.1" xmlns="http://www.w3.org/2000/svg" xmlns:xlink="http://www.w3.org/1999/xlink" xmlns:sketch="http://www.bohemiancoding.com/sketch/ns">
    <!-- Generator: Sketch 3.4.2 (15855) - http://www.bohemiancoding.com/sketch -->
    <title>Slice 1</title>
    <desc>Created with Sketch.</desc>
    <defs></defs>
    <g id="Page-1" stroke="none" stroke-width="1" fill="none" fill-rule="evenodd" sketch:type="MSPage">
        <path d="M243.541333,69.3353333 C243.541333,69.3246667 243.530667,69.314 243.530667,69.314 C243.52,69.2926667 243.509333,69.2713333 243.498667,69.242 C243.498667,69.2313333 243.488,69.21 243.477333,69.1993333 C243.437333,69.074 243.394667,68.9593333 243.333333,68.8553333 C243.301333,68.8046667 243.258667,68.762 243.229333,68.7193333 C243.229333,68.7113333 243.218667,68.7113333 243.218667,68.7006667 C243.186667,68.658 243.154667,68.6153333 243.125333,68.5753333 C243.093333,68.5326667 243.061333,68.4926667 243.021333,68.45 C242.978667,68.4073333 242.914667,68.3673333 242.864,68.3246667 C242.792,68.2633333 242.717333,68.1993333 242.634667,68.1486667 C242.624,68.138 242.613333,68.138 242.592,68.1273333 C242.581333,68.1166667 242.573333,68.1166667 242.562667,68.106 L196.197333,42.8153333 C196.050667,42.7006667 195.885333,42.6153333 195.706667,42.5433333 L149.258667,17.242 C148.666667,16.9193333 147.936,16.9193333 147.344,17.242 L100.688,42.6686667 C100.04,43.0233333 99.6453333,43.69 99.6453333,44.4286667 L99.6453333,94.106 L54.0293333,118.948667 C53.968,118.991333 53.9066667,119.044667 53.8533333,119.084667 C53.8,119.127333 53.7386667,119.159333 53.696,119.199333 C53.52,119.356667 53.3733333,119.522 53.2586667,119.73 C53.248,119.740667 53.248,119.751333 53.24,119.751333 C53.2293333,119.772667 53.2293333,119.804667 53.2186667,119.826 C53.1253333,120.012667 53.072,120.199333 53.04,120.407333 C53.0293333,120.471333 53.0213333,120.522 53.0213333,120.586 C53.0213333,120.626 53,120.658 53,120.711333 L53,171.564667 C53,172.292667 53.3946667,172.97 54.04,173.324667 L100.696,198.751333 C100.792,198.804667 100.896,198.823333 100.989333,198.866 C101.04,198.887333 101.093333,198.908667 101.144,198.93 C101.312,198.97 101.477333,198.991333 101.656,198.991333 C101.821333,198.991333 102,198.97 102.154667,198.93 L102.176,198.93 C102.218667,198.919333 102.248,198.898 102.28,198.887333 C102.301333,198.876667 102.322667,198.866 102.333333,198.866 C102.426667,198.834 102.52,198.804667 102.602667,198.762 L242.573333,122.482 C243.218667,122.138 243.613333,121.460667 243.613333,120.73 L243.613333,69.8553333 C243.613333,69.6793333 243.592,69.5006667 243.541333,69.3353333 L243.541333,69.3353333 Z M150.301333,71.0446667 L192.968,47.7833333 L192.968,94.0953333 L150.301333,117.346 L150.301333,71.0446667 Z M150.301333,121.898 L192.968,98.6473333 L192.968,144.938 L150.301333,168.199333 L150.301333,121.898 Z M103.645333,147.324667 L146.301333,124.074 L146.301333,170.378 L103.645333,193.615333 L103.645333,147.324667 Z M239.613333,119.522 L196.968,142.762 L196.968,96.4713333 L239.624,73.2206667 L239.624,119.522 L239.613333,119.522 Z" fill="#000000" sketch:type="MSShapeGroup"></path>
    </g>
</svg>