<?xml version="1.0" encoding="UTF-8" standalone="no"?>
<svg width="285px" height="214px" viewBox="0 0 285 214" version="1.1" xmlns="http://www.w3.org/2000/svg" xmlns:xlink="http://www.w3.org/1999/xlink" xmlns:sketch="http://www.bohemiancoding.com/sketch/ns">
    <!-- Generator: Sketch 3.4.2 (15855) - http://www.bohemiancoding.com/sketch -->
    <title>Slice 1</title>
    <desc>Created with Sketch.</desc>
    <defs></defs>
    <g id="Page-1" stroke="none" stroke-width="1" fill="none" fill-rule="evenodd" sketch:type="MSPage">
        <g sketch:type="MSLayerGroup" transform="translate(60.000000, 22.000000)" fill="#000000">
            <path d="M168.229733,40.3738667 L168.229733,13.4594667 C168.229733,7.08333333 162.916667,1.77026667 156.540533,1.77026667 L13.4594667,1.77026667 C7.08333333,1.77026667 1.77026667,7.08333333 1.77026667,13.4594667 L1.77026667,40.0202667 C1.77026667,41.0833333 2.47973333,41.7928 3.54053333,41.7928 L166.459467,41.7928 C167.520267,41.7928 168.229733,41.0833333 168.229733,40.3738667 L168.229733,40.3738667 Z M122.8964,16.6464 L145.916667,16.6464 C148.75,16.6464 151.229733,19.1261333 151.229733,21.9594667 C151.229733,24.7928 148.75,27.2702667 145.916667,27.2702667 L122.8964,27.2702667 C120.063067,27.2702667 117.583333,24.7928 117.583333,21.9594667 C117.583333,19.1261333 120.063067,16.6464 122.8964,16.6464 L122.8964,16.6464 Z M24.0833333,16.6464 L66.2297333,16.6464 C69.0630667,16.6464 71.5405333,19.1261333 71.5405333,21.9594667 C71.5405333,24.7928 69.0630667,27.2702667 66.2297333,27.2702667 L24.0833333,27.2702667 C20.8964,27.2702667 18.7702667,24.7928 18.7702667,21.9594667 C18.7702667,19.1261333 20.8964,16.6464 24.0833333,16.6464 L24.0833333,16.6464 Z" id="Fill-1" sketch:type="MSShapeGroup"></path>
            <path d="M1.77026667,54.1869333 L1.77026667,156.540533 C1.77026667,162.916667 7.08333333,168.229733 13.4594667,168.229733 L156.186933,168.229733 C162.563067,168.229733 167.873867,162.916667 167.873867,156.540533 L167.873867,52.4166667 L3.54053333,52.4166667 C2.47973333,52.4166667 1.77026667,53.1261333 1.77026667,54.1869333 L1.77026667,54.1869333 Z M145.916667,121.126133 L113.686933,121.126133 C111.2072,121.126133 109.436933,119.7072 108.729733,117.229733 L108.020267,114.75 C107.666667,113.333333 105.540533,113.333333 104.833333,114.75 L95.6261333,141.313067 C94.9166667,143.436933 92.7928,144.8536 90.6666667,144.8536 L90.3130667,144.8536 C87.8333333,144.8536 86.0630667,143.083333 85.3536,140.6036 L74.7297333,94.2072 C74.3738667,92.7928 72.25,92.4369333 71.5405333,93.8536 L57.3738667,124.666667 C56.6666667,126.436933 54.8964,127.5 53.1261333,127.8536 C51.3536,128.2072 49.5833333,127.1464 48.1666667,125.729733 L39.3130667,113.333333 C38.9594667,112.979733 38.6036,112.626133 37.8964,112.626133 L24.0833333,112.626133 C21.25,112.626133 18.7702667,110.1464 18.7702667,107.313067 C18.7702667,104.479733 21.25,102 24.0833333,102 L41.4369333,102 C43.2072,102 44.6261333,102.7072 45.6869333,104.126133 L49.9369333,109.7928 C50.6464,110.8536 52.0630667,110.5 52.7702667,109.436933 L70.4797333,70.8333333 C71.5405333,68.7072 73.6666667,67.6464 75.7928,67.6464 C77.9166667,68 80.0405333,69.4166667 80.3964,71.8964 L90.3130667,114.75 C90.6666667,116.166667 92.7928,116.520267 93.5,114.75 L102,90.6666667 C102.7072,88.5405333 104.833333,87.1261333 107.313067,87.1261333 C109.7928,87.1261333 111.563067,88.5405333 112.270267,91.0202667 L117.583333,109.083333 C117.936933,109.7928 118.2928,110.1464 119,110.1464 L145.916667,110.1464 C148.75,110.1464 151.229733,112.626133 151.229733,115.459467 C151.229733,118.2928 149.1036,121.126133 145.916667,121.126133 L145.916667,121.126133 Z" id="Fill-2" sketch:type="MSShapeGroup"></path>
        </g>
    </g>
</svg>