<?xml version="1.0" encoding="UTF-8" standalone="no"?>
<svg viewBox="0 0 2926 702" version="1.1" xmlns="http://www.w3.org/2000/svg" xmlns:xlink="http://www.w3.org/1999/xlink" xmlns:sketch="http://www.bohemiancoding.com/sketch/ns">
    <!-- Generator: Sketch 3.4.2 (15855) - http://www.bohemiancoding.com/sketch -->
    <title>yay</title>
    <desc>Created with Sketch.</desc>
    <defs></defs>
    <g id="Page-1" stroke="none" stroke-width="1" fill="none" fill-rule="evenodd" sketch:type="MSPage">
        <g id="yay" sketch:type="MSArtboardGroup" transform="translate(-415.000000, -386.000000)">
            <rect id="Rectangle-6-Copy-3" stroke="#5E5E5E" stroke-dasharray="4" fill-opacity="0.141332654" fill="#21C6DB" sketch:type="MSShapeGroup" x="420" y="461" width="2127" height="620"></rect>
            <rect id="Rectangle-6-Copy-2" stroke="#5E5E5E" stroke-dasharray="4" fill="#F9F9F9" sketch:type="MSShapeGroup" x="2563" y="461" width="771" height="620"></rect>
            <path d="M1113.59509,609.898318 L1045,609.898318 L1045,643.691175 L1113.59509,643.691175 L1113.59509,667.898318 L1172,626.398318 L1113.59509,584.898318 L1113.59509,609.898318 Z" id="Rectangle-4-Copy-11" fill-opacity="0.495018116" fill="#000000" sketch:type="MSShapeGroup"></path>
            <path d="M1893.59509,609.898318 L1825,609.898318 L1825,643.691175 L1893.59509,643.691175 L1893.59509,667.898318 L1952,626.398318 L1893.59509,584.898318 L1893.59509,609.898318 Z" id="Rectangle-4-Copy-10" fill-opacity="0.495018116" fill="#000000" sketch:type="MSShapeGroup"></path>
            <path d="M2577.59509,609.898318 L2509,609.898318 L2509,643.691175 L2577.59509,643.691175 L2577.59509,667.898318 L2636,626.398318 L2577.59509,584.898318 L2577.59509,609.898318 Z" id="Rectangle-4-Copy-9" fill-opacity="0.495018116" fill="#000000" sketch:type="MSShapeGroup"></path>
            <path d="M2524.59509,917 L2456,917 L2456,950.792857 L2524.59509,950.792857 L2524.59509,975 L2583,933.5 L2524.59509,892 L2524.59509,917 Z" id="Rectangle-4-Copy-8" fill-opacity="0.495018116" fill="#000000" sketch:type="MSShapeGroup" transform="translate(2519.500000, 933.500000) rotate(-180.000000) translate(-2519.500000, -933.500000) "></path>
            <path d="M1762.59509,917 L1694,917 L1694,950.792857 L1762.59509,950.792857 L1762.59509,975 L1821,933.5 L1762.59509,892 L1762.59509,917 Z" id="Rectangle-4-Copy-7" fill-opacity="0.495018116" fill="#000000" sketch:type="MSShapeGroup" transform="translate(1757.500000, 933.500000) rotate(-180.000000) translate(-1757.500000, -933.500000) "></path>
            <path d="M1095.59509,917 L1027,917 L1027,950.792857 L1095.59509,950.792857 L1095.59509,975 L1154,933.5 L1095.59509,892 L1095.59509,917 Z" id="Rectangle-4-Copy-6" fill-opacity="0.495018116" fill="#000000" sketch:type="MSShapeGroup" transform="translate(1090.500000, 933.500000) rotate(-180.000000) translate(-1090.500000, -933.500000) "></path>
            <path d="M598.912,616.528 C607.696,616.528 613.36,611.488 613.36,601.456 L613.36,582.4 L607.456,582.4 L607.456,601.744 C607.456,607.936 604.24,611.104 599.008,611.104 C593.728,611.104 590.512,607.744 590.512,601.504 L590.512,582.4 L584.608,582.4 L584.608,601.744 C584.608,611.488 590.176,616.528 598.912,616.528 L598.912,616.528 Z M620.8,616 L626.608,616 L626.608,601.696 C626.608,597.76 628.96,595.408 632.32,595.408 C635.776,595.408 637.744,597.664 637.744,601.6 L637.744,616 L643.552,616 L643.552,599.872 C643.552,593.968 640.24,590.128 634.528,590.128 C630.592,590.128 628.24,592.192 626.608,594.592 L626.608,590.656 L620.8,590.656 L620.8,616 Z M661.024,616.528 C665.152,616.528 667.792,614.416 669.664,611.776 L669.664,616 L675.472,616 L675.472,580.96 L669.664,580.96 L669.664,594.592 C667.84,592.24 665.2,590.128 661.024,590.128 C654.976,590.128 649.264,594.88 649.264,603.28 L649.264,603.376 C649.264,611.776 655.072,616.528 661.024,616.528 L661.024,616.528 Z M662.416,611.488 C658.48,611.488 655.12,608.272 655.12,603.376 L655.12,603.28 C655.12,598.24 658.432,595.168 662.416,595.168 C666.304,595.168 669.76,598.384 669.76,603.28 L669.76,603.376 C669.76,608.224 666.304,611.488 662.416,611.488 L662.416,611.488 Z M694.336,616.576 C698.992,616.576 702.304,614.704 704.704,611.824 L701.296,608.8 C699.28,610.768 697.264,611.824 694.432,611.824 C690.688,611.824 687.76,609.52 687.136,605.392 L705.76,605.392 C705.808,604.816 705.856,604.288 705.856,603.76 C705.856,596.464 701.776,590.128 693.712,590.128 C686.464,590.128 681.328,596.08 681.328,603.328 L681.328,603.424 C681.328,611.248 686.992,616.576 694.336,616.576 L694.336,616.576 Z M687.088,601.552 C687.616,597.616 690.112,594.88 693.664,594.88 C697.504,594.88 699.712,597.808 700.096,601.552 L687.088,601.552 Z M711.712,616 L717.52,616 L717.52,606.352 C717.52,599.632 721.072,596.32 726.16,596.32 L726.496,596.32 L726.496,590.176 C722.032,589.984 719.104,592.576 717.52,596.368 L717.52,590.656 L711.712,590.656 L711.712,616 Z M740.224,616.48 C745.504,616.48 749.632,613.84 749.632,608.512 L749.632,608.416 C749.632,603.856 745.456,602.176 741.76,601.024 C738.784,600.064 736.048,599.296 736.048,597.472 L736.048,597.376 C736.048,595.888 737.344,594.832 739.6,594.832 C741.712,594.832 744.304,595.744 746.752,597.232 L749.056,593.104 C746.368,591.328 742.912,590.224 739.744,590.224 C734.704,590.224 730.72,593.152 730.72,597.952 L730.72,598.048 C730.72,602.896 734.896,604.432 738.64,605.488 C741.616,606.4 744.304,607.072 744.304,609.04 L744.304,609.136 C744.304,610.816 742.864,611.872 740.368,611.872 C737.776,611.872 734.8,610.816 732.064,608.752 L729.472,612.688 C732.64,615.184 736.624,616.48 740.224,616.48 L740.224,616.48 Z M763.552,616.432 C765.712,616.432 767.344,615.952 768.784,615.136 L768.784,610.384 C767.632,610.96 766.48,611.248 765.184,611.248 C763.216,611.248 762.064,610.336 762.064,608.08 L762.064,595.648 L768.88,595.648 L768.88,590.656 L762.064,590.656 L762.064,583.696 L756.256,583.696 L756.256,590.656 L753.04,590.656 L753.04,595.648 L756.256,595.648 L756.256,608.992 C756.256,614.56 759.28,616.432 763.552,616.432 L763.552,616.432 Z M796,616 L796,600.976 C796,594.208 792.352,590.272 784.864,590.272 C780.736,590.272 778,591.136 775.216,592.384 L776.8,597.04 C779.104,596.08 781.216,595.456 784.048,595.456 C788.08,595.456 790.288,597.376 790.288,600.88 L790.288,601.36 C788.32,600.736 786.352,600.304 783.28,600.304 C777.376,600.304 773.008,602.992 773.008,608.608 L773.008,608.704 C773.008,613.792 777.232,616.528 782.032,616.528 C785.872,616.528 788.512,614.944 790.24,612.88 L790.24,616 L796,616 Z M790.384,606.832 C790.384,610 787.504,612.16 783.664,612.16 C780.928,612.16 778.768,610.816 778.768,608.416 L778.768,608.32 C778.768,605.872 780.928,604.384 784.576,604.384 C786.832,604.384 788.896,604.816 790.384,605.392 L790.384,606.832 Z M802.912,616 L808.72,616 L808.72,601.696 C808.72,597.76 811.072,595.408 814.432,595.408 C817.888,595.408 819.856,597.664 819.856,601.6 L819.856,616 L825.664,616 L825.664,599.872 C825.664,593.968 822.352,590.128 816.64,590.128 C812.704,590.128 810.352,592.192 808.72,594.592 L808.72,590.656 L802.912,590.656 L802.912,616 Z M843.136,616.528 C847.264,616.528 849.904,614.416 851.776,611.776 L851.776,616 L857.584,616 L857.584,580.96 L851.776,580.96 L851.776,594.592 C849.952,592.24 847.312,590.128 843.136,590.128 C837.088,590.128 831.376,594.88 831.376,603.28 L831.376,603.376 C831.376,611.776 837.184,616.528 843.136,616.528 L843.136,616.528 Z M844.528,611.488 C840.592,611.488 837.232,608.272 837.232,603.376 L837.232,603.28 C837.232,598.24 840.544,595.168 844.528,595.168 C848.416,595.168 851.872,598.384 851.872,603.28 L851.872,603.376 C851.872,608.224 848.416,611.488 844.528,611.488 L844.528,611.488 Z M557.896,682.600019 L563.8,682.600019 L563.8,670.888019 L571.192,670.888019 L579.448,682.600019 L586.408,682.600019 L577.336,669.880019 C582.04,668.536019 585.352,665.224019 585.352,659.704019 L585.352,659.608019 C585.352,656.680019 584.344,654.184019 582.568,652.360019 C580.408,650.248019 577.096,649.000019 572.872,649.000019 L557.896,649.000019 L557.896,682.600019 Z M563.8,665.656019 L563.8,654.376019 L572.392,654.376019 C576.76,654.376019 579.352,656.344019 579.352,659.944019 L579.352,660.040019 C579.352,663.448019 576.664,665.656019 572.44,665.656019 L563.8,665.656019 Z M603.064,683.176019 C607.72,683.176019 611.032,681.304019 613.432,678.424019 L610.024,675.400019 C608.008,677.368019 605.992,678.424019 603.16,678.424019 C599.416,678.424019 596.488,676.120019 595.864,671.992019 L614.488,671.992019 C614.536,671.416019 614.584,670.888019 614.584,670.360019 C614.584,663.064019 610.504,656.728019 602.44,656.728019 C595.192,656.728019 590.056,662.680019 590.056,669.928019 L590.056,670.024019 C590.056,677.848019 595.72,683.176019 603.064,683.176019 L603.064,683.176019 Z M595.816,668.152019 C596.344,664.216019 598.84,661.480019 602.392,661.480019 C606.232,661.480019 608.44,664.408019 608.824,668.152019 L595.816,668.152019 Z M639.544,690.280019 L645.352,690.280019 L645.352,657.256019 L639.544,657.256019 L639.544,661.192019 C637.72,658.840019 635.08,656.728019 630.904,656.728019 C624.856,656.728019 619.144,661.480019 619.144,669.880019 L619.144,669.976019 C619.144,678.376019 624.952,683.128019 630.904,683.128019 C635.032,683.128019 637.672,681.016019 639.544,678.376019 L639.544,690.280019 Z M632.296,678.088019 C628.36,678.088019 625,674.872019 625,669.976019 L625,669.880019 C625,664.840019 628.312,661.768019 632.296,661.768019 C636.184,661.768019 639.64,664.984019 639.64,669.880019 L639.64,669.976019 C639.64,674.824019 636.184,678.088019 632.296,678.088019 L632.296,678.088019 Z M661.336,683.128019 C665.272,683.128019 667.624,681.064019 669.256,678.664019 L669.256,682.600019 L675.064,682.600019 L675.064,657.256019 L669.256,657.256019 L669.256,671.560019 C669.256,675.496019 666.904,677.848019 663.544,677.848019 C660.088,677.848019 658.12,675.592019 658.12,671.656019 L658.12,657.256019 L652.312,657.256019 L652.312,673.384019 C652.312,679.288019 655.624,683.128019 661.336,683.128019 L661.336,683.128019 Z M682.456,653.368019 L688.696,653.368019 L688.696,647.848019 L682.456,647.848019 L682.456,653.368019 Z M682.696,682.600019 L688.504,682.600019 L688.504,657.256019 L682.696,657.256019 L682.696,682.600019 Z M696.088,682.600019 L701.896,682.600019 L701.896,672.952019 C701.896,666.232019 705.448,662.920019 710.536,662.920019 L710.872,662.920019 L710.872,656.776019 C706.408,656.584019 703.48,659.176019 701.896,662.968019 L701.896,657.256019 L696.088,657.256019 L696.088,682.600019 Z M726.664,683.176019 C731.32,683.176019 734.632,681.304019 737.032,678.424019 L733.624,675.400019 C731.608,677.368019 729.592,678.424019 726.76,678.424019 C723.016,678.424019 720.088,676.120019 719.464,671.992019 L738.088,671.992019 C738.136,671.416019 738.184,670.888019 738.184,670.360019 C738.184,663.064019 734.104,656.728019 726.04,656.728019 C718.792,656.728019 713.656,662.680019 713.656,669.928019 L713.656,670.024019 C713.656,677.848019 719.32,683.176019 726.664,683.176019 L726.664,683.176019 Z M719.416,668.152019 C719.944,664.216019 722.44,661.480019 725.992,661.480019 C729.832,661.480019 732.04,664.408019 732.424,668.152019 L719.416,668.152019 Z M744.04,682.600019 L749.848,682.600019 L749.848,668.344019 C749.848,664.408019 752.056,662.008019 755.272,662.008019 C758.488,662.008019 760.408,664.216019 760.408,668.152019 L760.408,682.600019 L766.216,682.600019 L766.216,668.296019 C766.216,664.216019 768.472,662.008019 771.64,662.008019 C774.904,662.008019 776.776,664.168019 776.776,668.200019 L776.776,682.600019 L782.584,682.600019 L782.584,666.424019 C782.584,660.232019 779.224,656.728019 773.704,656.728019 C769.864,656.728019 767.176,658.504019 765.112,661.192019 C763.768,658.504019 761.224,656.728019 757.576,656.728019 C753.688,656.728019 751.48,658.840019 749.848,661.096019 L749.848,657.256019 L744.04,657.256019 L744.04,682.600019 Z M801.256,683.176019 C805.912,683.176019 809.224,681.304019 811.624,678.424019 L808.216,675.400019 C806.2,677.368019 804.184,678.424019 801.352,678.424019 C797.608,678.424019 794.68,676.120019 794.056,671.992019 L812.68,671.992019 C812.728,671.416019 812.776,670.888019 812.776,670.360019 C812.776,663.064019 808.696,656.728019 800.632,656.728019 C793.384,656.728019 788.248,662.680019 788.248,669.928019 L788.248,670.024019 C788.248,677.848019 793.912,683.176019 801.256,683.176019 L801.256,683.176019 Z M794.008,668.152019 C794.536,664.216019 797.032,661.480019 800.584,661.480019 C804.424,661.480019 806.632,664.408019 807.016,668.152019 L794.008,668.152019 Z M818.632,682.600019 L824.44,682.600019 L824.44,668.296019 C824.44,664.360019 826.792,662.008019 830.152,662.008019 C833.608,662.008019 835.576,664.264019 835.576,668.200019 L835.576,682.600019 L841.384,682.600019 L841.384,666.472019 C841.384,660.568019 838.072,656.728019 832.36,656.728019 C828.424,656.728019 826.072,658.792019 824.44,661.192019 L824.44,657.256019 L818.632,657.256019 L818.632,682.600019 Z M856.888,683.032019 C859.048,683.032019 860.68,682.552019 862.12,681.736019 L862.12,676.984019 C860.968,677.560019 859.816,677.848019 858.52,677.848019 C856.552,677.848019 855.4,676.936019 855.4,674.680019 L855.4,662.248019 L862.216,662.248019 L862.216,657.256019 L855.4,657.256019 L855.4,650.296019 L849.592,650.296019 L849.592,657.256019 L846.376,657.256019 L846.376,662.248019 L849.592,662.248019 L849.592,675.592019 C849.592,681.160019 852.616,683.032019 856.888,683.032019 L856.888,683.032019 Z M876.76,683.080019 C882.04,683.080019 886.168,680.440019 886.168,675.112019 L886.168,675.016019 C886.168,670.456019 881.992,668.776019 878.296,667.624019 C875.32,666.664019 872.584,665.896019 872.584,664.072019 L872.584,663.976019 C872.584,662.488019 873.88,661.432019 876.136,661.432019 C878.248,661.432019 880.84,662.344019 883.288,663.832019 L885.592,659.704019 C882.904,657.928019 879.448,656.824019 876.28,656.824019 C871.24,656.824019 867.256,659.752019 867.256,664.552019 L867.256,664.648019 C867.256,669.496019 871.432,671.032019 875.176,672.088019 C878.152,673.000019 880.84,673.672019 880.84,675.640019 L880.84,675.736019 C880.84,677.416019 879.4,678.472019 876.904,678.472019 C874.312,678.472019 871.336,677.416019 868.6,675.352019 L866.008,679.288019 C869.176,681.784019 873.16,683.080019 876.76,683.080019 L876.76,683.080019 Z" id="Understand-Requireme-Copy" fill="#131313" sketch:type="MSShapeGroup"></path>
            <path d="M1305.632,616 L1311.44,616 L1311.44,592 L1321.952,607.744 L1322.144,607.744 L1332.752,591.904 L1332.752,616 L1338.656,616 L1338.656,582.4 L1332.368,582.4 L1322.144,598.288 L1311.92,582.4 L1305.632,582.4 L1305.632,616 Z M1358.24,616.576 C1362.896,616.576 1366.208,614.704 1368.608,611.824 L1365.2,608.8 C1363.184,610.768 1361.168,611.824 1358.336,611.824 C1354.592,611.824 1351.664,609.52 1351.04,605.392 L1369.664,605.392 C1369.712,604.816 1369.76,604.288 1369.76,603.76 C1369.76,596.464 1365.68,590.128 1357.616,590.128 C1350.368,590.128 1345.232,596.08 1345.232,603.328 L1345.232,603.424 C1345.232,611.248 1350.896,616.576 1358.24,616.576 L1358.24,616.576 Z M1350.992,601.552 C1351.52,597.616 1354.016,594.88 1357.568,594.88 C1361.408,594.88 1363.616,597.808 1364,601.552 L1350.992,601.552 Z M1387.232,616.576 C1391.888,616.576 1395.2,614.704 1397.6,611.824 L1394.192,608.8 C1392.176,610.768 1390.16,611.824 1387.328,611.824 C1383.584,611.824 1380.656,609.52 1380.032,605.392 L1398.656,605.392 C1398.704,604.816 1398.752,604.288 1398.752,603.76 C1398.752,596.464 1394.672,590.128 1386.608,590.128 C1379.36,590.128 1374.224,596.08 1374.224,603.328 L1374.224,603.424 C1374.224,611.248 1379.888,616.576 1387.232,616.576 L1387.232,616.576 Z M1379.984,601.552 C1380.512,597.616 1383.008,594.88 1386.56,594.88 C1390.4,594.88 1392.608,597.808 1392.992,601.552 L1379.984,601.552 Z M1413.104,616.432 C1415.264,616.432 1416.896,615.952 1418.336,615.136 L1418.336,610.384 C1417.184,610.96 1416.032,611.248 1414.736,611.248 C1412.768,611.248 1411.616,610.336 1411.616,608.08 L1411.616,595.648 L1418.432,595.648 L1418.432,590.656 L1411.616,590.656 L1411.616,583.696 L1405.808,583.696 L1405.808,590.656 L1402.592,590.656 L1402.592,595.648 L1405.808,595.648 L1405.808,608.992 C1405.808,614.56 1408.832,616.432 1413.104,616.432 L1413.104,616.432 Z M1453.136,616.528 C1461.92,616.528 1467.584,611.488 1467.584,601.456 L1467.584,582.4 L1461.68,582.4 L1461.68,601.744 C1461.68,607.936 1458.464,611.104 1453.232,611.104 C1447.952,611.104 1444.736,607.744 1444.736,601.504 L1444.736,582.4 L1438.832,582.4 L1438.832,601.744 C1438.832,611.488 1444.4,616.528 1453.136,616.528 L1453.136,616.528 Z M1483.712,616.48 C1488.992,616.48 1493.12,613.84 1493.12,608.512 L1493.12,608.416 C1493.12,603.856 1488.944,602.176 1485.248,601.024 C1482.272,600.064 1479.536,599.296 1479.536,597.472 L1479.536,597.376 C1479.536,595.888 1480.832,594.832 1483.088,594.832 C1485.2,594.832 1487.792,595.744 1490.24,597.232 L1492.544,593.104 C1489.856,591.328 1486.4,590.224 1483.232,590.224 C1478.192,590.224 1474.208,593.152 1474.208,597.952 L1474.208,598.048 C1474.208,602.896 1478.384,604.432 1482.128,605.488 C1485.104,606.4 1487.792,607.072 1487.792,609.04 L1487.792,609.136 C1487.792,610.816 1486.352,611.872 1483.856,611.872 C1481.264,611.872 1478.288,610.816 1475.552,608.752 L1472.96,612.688 C1476.128,615.184 1480.112,616.48 1483.712,616.48 L1483.712,616.48 Z M1510.64,616.576 C1515.296,616.576 1518.608,614.704 1521.008,611.824 L1517.6,608.8 C1515.584,610.768 1513.568,611.824 1510.736,611.824 C1506.992,611.824 1504.064,609.52 1503.44,605.392 L1522.064,605.392 C1522.112,604.816 1522.16,604.288 1522.16,603.76 C1522.16,596.464 1518.08,590.128 1510.016,590.128 C1502.768,590.128 1497.632,596.08 1497.632,603.328 L1497.632,603.424 C1497.632,611.248 1503.296,616.576 1510.64,616.576 L1510.64,616.576 Z M1503.392,601.552 C1503.92,597.616 1506.416,594.88 1509.968,594.88 C1513.808,594.88 1516.016,597.808 1516.4,601.552 L1503.392,601.552 Z M1528.016,616 L1533.824,616 L1533.824,606.352 C1533.824,599.632 1537.376,596.32 1542.464,596.32 L1542.8,596.32 L1542.8,590.176 C1538.336,589.984 1535.408,592.576 1533.824,596.368 L1533.824,590.656 L1528.016,590.656 L1528.016,616 Z M1556.528,616.48 C1561.808,616.48 1565.936,613.84 1565.936,608.512 L1565.936,608.416 C1565.936,603.856 1561.76,602.176 1558.064,601.024 C1555.088,600.064 1552.352,599.296 1552.352,597.472 L1552.352,597.376 C1552.352,595.888 1553.648,594.832 1555.904,594.832 C1558.016,594.832 1560.608,595.744 1563.056,597.232 L1565.36,593.104 C1562.672,591.328 1559.216,590.224 1556.048,590.224 C1551.008,590.224 1547.024,593.152 1547.024,597.952 L1547.024,598.048 C1547.024,602.896 1551.2,604.432 1554.944,605.488 C1557.92,606.4 1560.608,607.072 1560.608,609.04 L1560.608,609.136 C1560.608,610.816 1559.168,611.872 1556.672,611.872 C1554.08,611.872 1551.104,610.816 1548.368,608.752 L1545.776,612.688 C1548.944,615.184 1552.928,616.48 1556.528,616.48 L1556.528,616.48 Z M1607.504,616 L1607.504,600.976 C1607.504,594.208 1603.856,590.272 1596.368,590.272 C1592.24,590.272 1589.504,591.136 1586.72,592.384 L1588.304,597.04 C1590.608,596.08 1592.72,595.456 1595.552,595.456 C1599.584,595.456 1601.792,597.376 1601.792,600.88 L1601.792,601.36 C1599.824,600.736 1597.856,600.304 1594.784,600.304 C1588.88,600.304 1584.512,602.992 1584.512,608.608 L1584.512,608.704 C1584.512,613.792 1588.736,616.528 1593.536,616.528 C1597.376,616.528 1600.016,614.944 1601.744,612.88 L1601.744,616 L1607.504,616 Z M1601.888,606.832 C1601.888,610 1599.008,612.16 1595.168,612.16 C1592.432,612.16 1590.272,610.816 1590.272,608.416 L1590.272,608.32 C1590.272,605.872 1592.432,604.384 1596.08,604.384 C1598.336,604.384 1600.4,604.816 1601.888,605.392 L1601.888,606.832 Z M1614.416,616 L1620.224,616 L1620.224,601.696 C1620.224,597.76 1622.576,595.408 1625.936,595.408 C1629.392,595.408 1631.36,597.664 1631.36,601.6 L1631.36,616 L1637.168,616 L1637.168,599.872 C1637.168,593.968 1633.856,590.128 1628.144,590.128 C1624.208,590.128 1621.856,592.192 1620.224,594.592 L1620.224,590.656 L1614.416,590.656 L1614.416,616 Z M1654.64,616.528 C1658.768,616.528 1661.408,614.416 1663.28,611.776 L1663.28,616 L1669.088,616 L1669.088,580.96 L1663.28,580.96 L1663.28,594.592 C1661.456,592.24 1658.816,590.128 1654.64,590.128 C1648.592,590.128 1642.88,594.88 1642.88,603.28 L1642.88,603.376 C1642.88,611.776 1648.688,616.528 1654.64,616.528 L1654.64,616.528 Z M1656.032,611.488 C1652.096,611.488 1648.736,608.272 1648.736,603.376 L1648.736,603.28 C1648.736,598.24 1652.048,595.168 1656.032,595.168 C1659.92,595.168 1663.376,598.384 1663.376,603.28 L1663.376,603.376 C1663.376,608.224 1659.92,611.488 1656.032,611.488 L1656.032,611.488 Z M1346.048,683.080019 C1353.104,683.080019 1358.048,679.336019 1358.048,673.048019 L1358.048,672.952019 C1358.048,667.384019 1354.352,664.840019 1347.248,663.112019 C1340.816,661.576019 1339.28,660.424019 1339.28,657.832019 L1339.28,657.736019 C1339.28,655.528019 1341.296,653.752019 1344.752,653.752019 C1347.824,653.752019 1350.848,654.952019 1353.872,657.208019 L1357.04,652.744019 C1353.632,650.008019 1349.744,648.520019 1344.848,648.520019 C1338.176,648.520019 1333.376,652.504019 1333.376,658.264019 L1333.376,658.360019 C1333.376,664.552019 1337.408,666.664019 1344.56,668.392019 C1350.8,669.832019 1352.144,671.128019 1352.144,673.528019 L1352.144,673.624019 C1352.144,676.168019 1349.84,677.848019 1346.192,677.848019 C1342.016,677.848019 1338.8,676.264019 1335.584,673.480019 L1332.032,677.704019 C1336.064,681.304019 1340.912,683.080019 1346.048,683.080019 L1346.048,683.080019 Z M1372.592,683.032019 C1374.752,683.032019 1376.384,682.552019 1377.824,681.736019 L1377.824,676.984019 C1376.672,677.560019 1375.52,677.848019 1374.224,677.848019 C1372.256,677.848019 1371.104,676.936019 1371.104,674.680019 L1371.104,662.248019 L1377.92,662.248019 L1377.92,657.256019 L1371.104,657.256019 L1371.104,650.296019 L1365.296,650.296019 L1365.296,657.256019 L1362.08,657.256019 L1362.08,662.248019 L1365.296,662.248019 L1365.296,675.592019 C1365.296,681.160019 1368.32,683.032019 1372.592,683.032019 L1372.592,683.032019 Z M1405.04,682.600019 L1405.04,667.576019 C1405.04,660.808019 1401.392,656.872019 1393.904,656.872019 C1389.776,656.872019 1387.04,657.736019 1384.256,658.984019 L1385.84,663.640019 C1388.144,662.680019 1390.256,662.056019 1393.088,662.056019 C1397.12,662.056019 1399.328,663.976019 1399.328,667.480019 L1399.328,667.960019 C1397.36,667.336019 1395.392,666.904019 1392.32,666.904019 C1386.416,666.904019 1382.048,669.592019 1382.048,675.208019 L1382.048,675.304019 C1382.048,680.392019 1386.272,683.128019 1391.072,683.128019 C1394.912,683.128019 1397.552,681.544019 1399.28,679.480019 L1399.28,682.600019 L1405.04,682.600019 Z M1399.424,673.432019 C1399.424,676.600019 1396.544,678.760019 1392.704,678.760019 C1389.968,678.760019 1387.808,677.416019 1387.808,675.016019 L1387.808,674.920019 C1387.808,672.472019 1389.968,670.984019 1393.616,670.984019 C1395.872,670.984019 1397.936,671.416019 1399.424,671.992019 L1399.424,673.432019 Z M1411.952,682.600019 L1417.76,682.600019 L1417.76,675.352019 L1421.312,671.656019 L1428.944,682.600019 L1435.664,682.600019 L1425.248,667.576019 L1435.328,657.256019 L1428.272,657.256019 L1417.76,668.488019 L1417.76,647.560019 L1411.952,647.560019 L1411.952,682.600019 Z M1450.304,683.176019 C1454.96,683.176019 1458.272,681.304019 1460.672,678.424019 L1457.264,675.400019 C1455.248,677.368019 1453.232,678.424019 1450.4,678.424019 C1446.656,678.424019 1443.728,676.120019 1443.104,671.992019 L1461.728,671.992019 C1461.776,671.416019 1461.824,670.888019 1461.824,670.360019 C1461.824,663.064019 1457.744,656.728019 1449.68,656.728019 C1442.432,656.728019 1437.296,662.680019 1437.296,669.928019 L1437.296,670.024019 C1437.296,677.848019 1442.96,683.176019 1450.304,683.176019 L1450.304,683.176019 Z M1443.056,668.152019 C1443.584,664.216019 1446.08,661.480019 1449.632,661.480019 C1453.472,661.480019 1455.68,664.408019 1456.064,668.152019 L1443.056,668.152019 Z M1467.68,682.600019 L1473.488,682.600019 L1473.488,668.296019 C1473.488,664.360019 1475.84,662.008019 1479.2,662.008019 C1482.656,662.008019 1484.624,664.264019 1484.624,668.200019 L1484.624,682.600019 L1490.432,682.600019 L1490.432,666.472019 C1490.432,660.568019 1487.12,656.728019 1481.408,656.728019 C1477.472,656.728019 1475.12,658.792019 1473.488,661.192019 L1473.488,647.560019 L1467.68,647.560019 L1467.68,682.600019 Z M1509.488,683.176019 C1517.312,683.176019 1523.072,677.176019 1523.072,669.976019 L1523.072,669.880019 C1523.072,662.632019 1517.36,656.728019 1509.584,656.728019 C1501.808,656.728019 1496.048,662.728019 1496.048,669.976019 L1496.048,670.072019 C1496.048,677.272019 1501.76,683.176019 1509.488,683.176019 L1509.488,683.176019 Z M1509.584,678.136019 C1505.072,678.136019 1501.856,674.392019 1501.856,669.976019 L1501.856,669.880019 C1501.856,665.464019 1504.832,661.816019 1509.488,661.816019 C1514.048,661.816019 1517.264,665.512019 1517.264,669.976019 L1517.264,670.072019 C1517.264,674.440019 1514.288,678.136019 1509.584,678.136019 L1509.584,678.136019 Z M1529.312,682.600019 L1535.12,682.600019 L1535.12,647.560019 L1529.312,647.560019 L1529.312,682.600019 Z M1553.168,683.128019 C1557.296,683.128019 1559.936,681.016019 1561.808,678.376019 L1561.808,682.600019 L1567.616,682.600019 L1567.616,647.560019 L1561.808,647.560019 L1561.808,661.192019 C1559.984,658.840019 1557.344,656.728019 1553.168,656.728019 C1547.12,656.728019 1541.408,661.480019 1541.408,669.880019 L1541.408,669.976019 C1541.408,678.376019 1547.216,683.128019 1553.168,683.128019 L1553.168,683.128019 Z M1554.56,678.088019 C1550.624,678.088019 1547.264,674.872019 1547.264,669.976019 L1547.264,669.880019 C1547.264,664.840019 1550.576,661.768019 1554.56,661.768019 C1558.448,661.768019 1561.904,664.984019 1561.904,669.880019 L1561.904,669.976019 C1561.904,674.824019 1558.448,678.088019 1554.56,678.088019 L1554.56,678.088019 Z M1586.48,683.176019 C1591.136,683.176019 1594.448,681.304019 1596.848,678.424019 L1593.44,675.400019 C1591.424,677.368019 1589.408,678.424019 1586.576,678.424019 C1582.832,678.424019 1579.904,676.120019 1579.28,671.992019 L1597.904,671.992019 C1597.952,671.416019 1598,670.888019 1598,670.360019 C1598,663.064019 1593.92,656.728019 1585.856,656.728019 C1578.608,656.728019 1573.472,662.680019 1573.472,669.928019 L1573.472,670.024019 C1573.472,677.848019 1579.136,683.176019 1586.48,683.176019 L1586.48,683.176019 Z M1579.232,668.152019 C1579.76,664.216019 1582.256,661.480019 1585.808,661.480019 C1589.648,661.480019 1591.856,664.408019 1592.24,668.152019 L1579.232,668.152019 Z M1603.856,682.600019 L1609.664,682.600019 L1609.664,672.952019 C1609.664,666.232019 1613.216,662.920019 1618.304,662.920019 L1618.64,662.920019 L1618.64,656.776019 C1614.176,656.584019 1611.248,659.176019 1609.664,662.968019 L1609.664,657.256019 L1603.856,657.256019 L1603.856,682.600019 Z M1632.368,683.080019 C1637.648,683.080019 1641.776,680.440019 1641.776,675.112019 L1641.776,675.016019 C1641.776,670.456019 1637.6,668.776019 1633.904,667.624019 C1630.928,666.664019 1628.192,665.896019 1628.192,664.072019 L1628.192,663.976019 C1628.192,662.488019 1629.488,661.432019 1631.744,661.432019 C1633.856,661.432019 1636.448,662.344019 1638.896,663.832019 L1641.2,659.704019 C1638.512,657.928019 1635.056,656.824019 1631.888,656.824019 C1626.848,656.824019 1622.864,659.752019 1622.864,664.552019 L1622.864,664.648019 C1622.864,669.496019 1627.04,671.032019 1630.784,672.088019 C1633.76,673.000019 1636.448,673.672019 1636.448,675.640019 L1636.448,675.736019 C1636.448,677.416019 1635.008,678.472019 1632.512,678.472019 C1629.92,678.472019 1626.944,677.416019 1624.208,675.352019 L1621.616,679.288019 C1624.784,681.784019 1628.768,683.080019 1632.368,683.080019 L1632.368,683.080019 Z" id="Meet-Users-and-Stake-Copy" fill="#131313" sketch:type="MSShapeGroup"></path>
            <path d="M1325.72183,419 L1344.37983,419 L1344.37983,414.744 L1330.39583,414.744 L1330.39583,392.4 L1325.72183,392.4 L1325.72183,419 Z M1349.24383,419 L1369.15583,419 L1369.15583,414.82 L1353.91783,414.82 L1353.91783,407.676 L1367.25583,407.676 L1367.25583,403.496 L1353.91783,403.496 L1353.91783,396.58 L1368.96583,396.58 L1368.96583,392.4 L1349.24383,392.4 L1349.24383,419 Z M1374.70383,419 L1379.37783,419 L1379.37783,408.17 L1392.79183,408.17 L1392.79183,403.914 L1379.37783,403.914 L1379.37783,396.656 L1394.50183,396.656 L1394.50183,392.4 L1374.70383,392.4 L1374.70383,419 Z M1406.16783,419 L1410.87983,419 L1410.87983,396.732 L1419.31583,396.732 L1419.31583,392.4 L1397.73183,392.4 L1397.73183,396.732 L1406.16783,396.732 L1406.16783,419 Z M1424.25583,419 L1436.56783,419 C1442.49583,419 1446.40983,416.454 1446.40983,411.704 L1446.40983,411.628 C1446.40983,408.018 1444.24383,406.232 1441.12783,405.168 C1443.10383,404.142 1444.92783,402.432 1444.92783,399.24 L1444.92783,399.164 C1444.92783,397.378 1444.31983,395.934 1443.14183,394.756 C1441.62183,393.236 1439.22783,392.4 1436.18783,392.4 L1424.25583,392.4 L1424.25583,419 Z M1428.85383,403.61 L1428.85383,396.542 L1435.57983,396.542 C1438.58183,396.542 1440.25383,397.834 1440.25383,399.924 L1440.25383,400 C1440.25383,402.432 1438.23983,403.61 1435.23783,403.61 L1428.85383,403.61 Z M1428.85383,414.858 L1428.85383,407.562 L1436.26383,407.562 C1439.94983,407.562 1441.73583,408.892 1441.73583,411.134 L1441.73583,411.21 C1441.73583,413.604 1439.79783,414.858 1436.60583,414.858 L1428.85383,414.858 Z M1451.69183,419 L1456.36583,419 L1456.36583,409.728 L1462.21783,409.728 L1468.75383,419 L1474.26383,419 L1467.08183,408.93 C1470.80583,407.866 1473.42783,405.244 1473.42783,400.874 L1473.42783,400.798 C1473.42783,398.48 1472.62983,396.504 1471.22383,395.06 C1469.51383,393.388 1466.89183,392.4 1463.54783,392.4 L1451.69183,392.4 L1451.69183,419 Z M1456.36583,405.586 L1456.36583,396.656 L1463.16783,396.656 C1466.62583,396.656 1468.67783,398.214 1468.67783,401.064 L1468.67783,401.14 C1468.67783,403.838 1466.54983,405.586 1463.20583,405.586 L1456.36583,405.586 Z M1476.88583,419 L1481.67383,419 L1484.40983,412.578 L1496.98783,412.578 L1499.68583,419 L1504.62583,419 L1492.92183,392.21 L1488.58983,392.21 L1476.88583,419 Z M1486.11983,408.436 L1490.67983,397.796 L1495.27783,408.436 L1486.11983,408.436 Z M1509.45183,419 L1514.12583,419 L1514.12583,392.4 L1509.45183,392.4 L1509.45183,419 Z M1521.23183,419 L1525.82983,419 L1525.82983,400.076 L1540.49783,419 L1544.41183,419 L1544.41183,392.4 L1539.81383,392.4 L1539.81383,410.792 L1525.56383,392.4 L1521.23183,392.4 L1521.23183,419 Z" id="LEFTBRAIN-Copy" fill="#000000" sketch:type="MSShapeGroup"></path>
            <path d="M2778.63683,419 L2783.31083,419 L2783.31083,409.728 L2789.16283,409.728 L2795.69883,419 L2801.20883,419 L2794.02683,408.93 C2797.75083,407.866 2800.37283,405.244 2800.37283,400.874 L2800.37283,400.798 C2800.37283,398.48 2799.57483,396.504 2798.16883,395.06 C2796.45883,393.388 2793.83683,392.4 2790.49283,392.4 L2778.63683,392.4 L2778.63683,419 Z M2783.31083,405.586 L2783.31083,396.656 L2790.11283,396.656 C2793.57083,396.656 2795.62283,398.214 2795.62283,401.064 L2795.62283,401.14 C2795.62283,403.838 2793.49483,405.586 2790.15083,405.586 L2783.31083,405.586 Z M2806.11083,419 L2826.02283,419 L2826.02283,414.82 L2810.78483,414.82 L2810.78483,407.676 L2824.12283,407.676 L2824.12283,403.496 L2810.78483,403.496 L2810.78483,396.58 L2825.83283,396.58 L2825.83283,392.4 L2806.11083,392.4 L2806.11083,419 Z M2840.88083,419.38 C2846.46683,419.38 2850.38083,416.416 2850.38083,411.438 L2850.38083,411.362 C2850.38083,406.954 2847.45483,404.94 2841.83083,403.572 C2836.73883,402.356 2835.52283,401.444 2835.52283,399.392 L2835.52283,399.316 C2835.52283,397.568 2837.11883,396.162 2839.85483,396.162 C2842.28683,396.162 2844.68083,397.112 2847.07483,398.898 L2849.58283,395.364 C2846.88483,393.198 2843.80683,392.02 2839.93083,392.02 C2834.64883,392.02 2830.84883,395.174 2830.84883,399.734 L2830.84883,399.81 C2830.84883,404.712 2834.04083,406.384 2839.70283,407.752 C2844.64283,408.892 2845.70683,409.918 2845.70683,411.818 L2845.70683,411.894 C2845.70683,413.908 2843.88283,415.238 2840.99483,415.238 C2837.68883,415.238 2835.14283,413.984 2832.59683,411.78 L2829.78483,415.124 C2832.97683,417.974 2836.81483,419.38 2840.88083,419.38 L2840.88083,419.38 Z M2855.89083,419 L2875.80283,419 L2875.80283,414.82 L2860.56483,414.82 L2860.56483,407.676 L2873.90283,407.676 L2873.90283,403.496 L2860.56483,403.496 L2860.56483,396.58 L2875.61283,396.58 L2875.61283,392.4 L2855.89083,392.4 L2855.89083,419 Z M2881.35083,419 L2900.00883,419 L2900.00883,414.744 L2886.02483,414.744 L2886.02483,392.4 L2881.35083,392.4 L2881.35083,419 Z M2904.87283,419 L2923.53083,419 L2923.53083,414.744 L2909.54683,414.744 L2909.54683,392.4 L2904.87283,392.4 L2904.87283,419 Z M2928.39483,419 L2948.30683,419 L2948.30683,414.82 L2933.06883,414.82 L2933.06883,407.676 L2946.40683,407.676 L2946.40683,403.496 L2933.06883,403.496 L2933.06883,396.58 L2948.11683,396.58 L2948.11683,392.4 L2928.39483,392.4 L2928.39483,419 Z M2953.85483,419 L2958.52883,419 L2958.52883,409.728 L2964.38083,409.728 L2970.91683,419 L2976.42683,419 L2969.24483,408.93 C2972.96883,407.866 2975.59083,405.244 2975.59083,400.874 L2975.59083,400.798 C2975.59083,398.48 2974.79283,396.504 2973.38683,395.06 C2971.67683,393.388 2969.05483,392.4 2965.71083,392.4 L2953.85483,392.4 L2953.85483,419 Z M2958.52883,405.586 L2958.52883,396.656 L2965.33083,396.656 C2968.78883,396.656 2970.84083,398.214 2970.84083,401.064 L2970.84083,401.14 C2970.84083,403.838 2968.71283,405.586 2965.36883,405.586 L2958.52883,405.586 Z M2976.95883,423.864 L2980.94883,423.864 L2998.12483,388.676 L2994.13483,388.676 L2976.95883,423.864 Z M2994.28683,419 L2999.07483,419 L3001.81083,412.578 L3014.38883,412.578 L3017.08683,419 L3022.02683,419 L3010.32283,392.21 L3005.99083,392.21 L2994.28683,419 Z M3003.52083,408.436 L3008.08083,397.796 L3012.67883,408.436 L3003.52083,408.436 Z M3026.58683,419 L3031.26083,419 L3031.26083,410.45 L3036.54283,410.45 C3042.39483,410.45 3047.18283,407.334 3047.18283,401.368 L3047.18283,401.292 C3047.18283,395.934 3043.26883,392.4 3037.07483,392.4 L3026.58683,392.4 L3026.58683,419 Z M3031.26083,406.232 L3031.26083,396.656 L3036.69483,396.656 C3040.19083,396.656 3042.43283,398.29 3042.43283,401.406 L3042.43283,401.482 C3042.43283,404.256 3040.22883,406.232 3036.69483,406.232 L3031.26083,406.232 Z M3051.97083,419 L3056.64483,419 L3056.64483,410.45 L3061.92683,410.45 C3067.77883,410.45 3072.56683,407.334 3072.56683,401.368 L3072.56683,401.292 C3072.56683,395.934 3068.65283,392.4 3062.45883,392.4 L3051.97083,392.4 L3051.97083,419 Z M3056.64483,406.232 L3056.64483,396.656 L3062.07883,396.656 C3065.57483,396.656 3067.81683,398.29 3067.81683,401.406 L3067.81683,401.482 C3067.81683,404.256 3065.61283,406.232 3062.07883,406.232 L3056.64483,406.232 Z M3077.35483,419 L3096.01283,419 L3096.01283,414.744 L3082.02883,414.744 L3082.02883,392.4 L3077.35483,392.4 L3077.35483,419 Z M3100.87683,419 L3120.78883,419 L3120.78883,414.82 L3105.55083,414.82 L3105.55083,407.676 L3118.88883,407.676 L3118.88883,403.496 L3105.55083,403.496 L3105.55083,396.58 L3120.59883,396.58 L3120.59883,392.4 L3100.87683,392.4 L3100.87683,419 Z" id="RESELLER/APPLE-Copy" fill="#000000" sketch:type="MSShapeGroup"></path>
            <path d="M2127.87891,616 L2140.40691,616 C2150.96691,616 2158.26291,608.656 2158.26291,599.2 L2158.26291,599.104 C2158.26291,589.648 2150.96691,582.4 2140.40691,582.4 L2127.87891,582.4 L2127.87891,616 Z M2133.78291,610.624 L2133.78291,587.776 L2140.40691,587.776 C2147.46291,587.776 2152.07091,592.624 2152.07091,599.2 L2152.07091,599.296 C2152.07091,605.872 2147.46291,610.624 2140.40691,610.624 L2133.78291,610.624 Z M2176.35891,616.576 C2181.01491,616.576 2184.32691,614.704 2186.72691,611.824 L2183.31891,608.8 C2181.30291,610.768 2179.28691,611.824 2176.45491,611.824 C2172.71091,611.824 2169.78291,609.52 2169.15891,605.392 L2187.78291,605.392 C2187.83091,604.816 2187.87891,604.288 2187.87891,603.76 C2187.87891,596.464 2183.79891,590.128 2175.73491,590.128 C2168.48691,590.128 2163.35091,596.08 2163.35091,603.328 L2163.35091,603.424 C2163.35091,611.248 2169.01491,616.576 2176.35891,616.576 L2176.35891,616.576 Z M2169.11091,601.552 C2169.63891,597.616 2172.13491,594.88 2175.68691,594.88 C2179.52691,594.88 2181.73491,597.808 2182.11891,601.552 L2169.11091,601.552 Z M2202.42291,616.48 C2207.70291,616.48 2211.83091,613.84 2211.83091,608.512 L2211.83091,608.416 C2211.83091,603.856 2207.65491,602.176 2203.95891,601.024 C2200.98291,600.064 2198.24691,599.296 2198.24691,597.472 L2198.24691,597.376 C2198.24691,595.888 2199.54291,594.832 2201.79891,594.832 C2203.91091,594.832 2206.50291,595.744 2208.95091,597.232 L2211.25491,593.104 C2208.56691,591.328 2205.11091,590.224 2201.94291,590.224 C2196.90291,590.224 2192.91891,593.152 2192.91891,597.952 L2192.91891,598.048 C2192.91891,602.896 2197.09491,604.432 2200.83891,605.488 C2203.81491,606.4 2206.50291,607.072 2206.50291,609.04 L2206.50291,609.136 C2206.50291,610.816 2205.06291,611.872 2202.56691,611.872 C2199.97491,611.872 2196.99891,610.816 2194.26291,608.752 L2191.67091,612.688 C2194.83891,615.184 2198.82291,616.48 2202.42291,616.48 L2202.42291,616.48 Z M2217.83091,586.768 L2224.07091,586.768 L2224.07091,581.248 L2217.83091,581.248 L2217.83091,586.768 Z M2218.07091,616 L2223.87891,616 L2223.87891,590.656 L2218.07091,590.656 L2218.07091,616 Z M2242.74291,623.776 C2247.30291,623.776 2250.85491,622.672 2253.15891,620.368 C2255.27091,618.256 2256.37491,615.088 2256.37491,610.816 L2256.37491,590.656 L2250.56691,590.656 L2250.56691,594.448 C2248.59891,592.096 2245.95891,590.128 2241.68691,590.128 C2235.78291,590.128 2230.16691,594.544 2230.16691,602.032 L2230.16691,602.128 C2230.16691,609.568 2235.73491,613.984 2241.68691,613.984 C2245.86291,613.984 2248.50291,612.064 2250.61491,609.328 L2250.61491,611.296 C2250.61491,616.384 2247.78291,619.072 2242.59891,619.072 C2239.14291,619.072 2236.26291,618.064 2233.57491,616.384 L2231.41491,620.752 C2234.67891,622.72 2238.56691,623.776 2242.74291,623.776 L2242.74291,623.776 Z M2243.22291,609.088 C2239.23891,609.088 2236.02291,606.256 2236.02291,602.08 L2236.02291,601.984 C2236.02291,597.808 2239.19091,595.024 2243.22291,595.024 C2247.25491,595.024 2250.66291,597.856 2250.66291,602.032 L2250.66291,602.128 C2250.66291,606.208 2247.25491,609.088 2243.22291,609.088 L2243.22291,609.088 Z M2263.62291,616 L2269.43091,616 L2269.43091,601.696 C2269.43091,597.76 2271.78291,595.408 2275.14291,595.408 C2278.59891,595.408 2280.56691,597.664 2280.56691,601.6 L2280.56691,616 L2286.37491,616 L2286.37491,599.872 C2286.37491,593.968 2283.06291,590.128 2277.35091,590.128 C2273.41491,590.128 2271.06291,592.192 2269.43091,594.592 L2269.43091,590.656 L2263.62291,590.656 L2263.62291,616 Z M2122.50291,683.080019 C2129.55891,683.080019 2134.50291,679.336019 2134.50291,673.048019 L2134.50291,672.952019 C2134.50291,667.384019 2130.80691,664.840019 2123.70291,663.112019 C2117.27091,661.576019 2115.73491,660.424019 2115.73491,657.832019 L2115.73491,657.736019 C2115.73491,655.528019 2117.75091,653.752019 2121.20691,653.752019 C2124.27891,653.752019 2127.30291,654.952019 2130.32691,657.208019 L2133.49491,652.744019 C2130.08691,650.008019 2126.19891,648.520019 2121.30291,648.520019 C2114.63091,648.520019 2109.83091,652.504019 2109.83091,658.264019 L2109.83091,658.360019 C2109.83091,664.552019 2113.86291,666.664019 2121.01491,668.392019 C2127.25491,669.832019 2128.59891,671.128019 2128.59891,673.528019 L2128.59891,673.624019 C2128.59891,676.168019 2126.29491,677.848019 2122.64691,677.848019 C2118.47091,677.848019 2115.25491,676.264019 2112.03891,673.480019 L2108.48691,677.704019 C2112.51891,681.304019 2117.36691,683.080019 2122.50291,683.080019 L2122.50291,683.080019 Z M2152.83891,683.176019 C2160.66291,683.176019 2166.42291,677.176019 2166.42291,669.976019 L2166.42291,669.880019 C2166.42291,662.632019 2160.71091,656.728019 2152.93491,656.728019 C2145.15891,656.728019 2139.39891,662.728019 2139.39891,669.976019 L2139.39891,670.072019 C2139.39891,677.272019 2145.11091,683.176019 2152.83891,683.176019 L2152.83891,683.176019 Z M2152.93491,678.136019 C2148.42291,678.136019 2145.20691,674.392019 2145.20691,669.976019 L2145.20691,669.880019 C2145.20691,665.464019 2148.18291,661.816019 2152.83891,661.816019 C2157.39891,661.816019 2160.61491,665.512019 2160.61491,669.976019 L2160.61491,670.072019 C2160.61491,674.440019 2157.63891,678.136019 2152.93491,678.136019 L2152.93491,678.136019 Z M2172.66291,682.600019 L2178.47091,682.600019 L2178.47091,647.560019 L2172.66291,647.560019 L2172.66291,682.600019 Z M2194.79091,683.128019 C2198.72691,683.128019 2201.07891,681.064019 2202.71091,678.664019 L2202.71091,682.600019 L2208.51891,682.600019 L2208.51891,657.256019 L2202.71091,657.256019 L2202.71091,671.560019 C2202.71091,675.496019 2200.35891,677.848019 2196.99891,677.848019 C2193.54291,677.848019 2191.57491,675.592019 2191.57491,671.656019 L2191.57491,657.256019 L2185.76691,657.256019 L2185.76691,673.384019 C2185.76691,679.288019 2189.07891,683.128019 2194.79091,683.128019 L2194.79091,683.128019 Z M2224.31091,683.032019 C2226.47091,683.032019 2228.10291,682.552019 2229.54291,681.736019 L2229.54291,676.984019 C2228.39091,677.560019 2227.23891,677.848019 2225.94291,677.848019 C2223.97491,677.848019 2222.82291,676.936019 2222.82291,674.680019 L2222.82291,662.248019 L2229.63891,662.248019 L2229.63891,657.256019 L2222.82291,657.256019 L2222.82291,650.296019 L2217.01491,650.296019 L2217.01491,657.256019 L2213.79891,657.256019 L2213.79891,662.248019 L2217.01491,662.248019 L2217.01491,675.592019 C2217.01491,681.160019 2220.03891,683.032019 2224.31091,683.032019 L2224.31091,683.032019 Z M2235.59091,653.368019 L2241.83091,653.368019 L2241.83091,647.848019 L2235.59091,647.848019 L2235.59091,653.368019 Z M2235.83091,682.600019 L2241.63891,682.600019 L2241.63891,657.256019 L2235.83091,657.256019 L2235.83091,682.600019 Z M2261.27091,683.176019 C2269.09491,683.176019 2274.85491,677.176019 2274.85491,669.976019 L2274.85491,669.880019 C2274.85491,662.632019 2269.14291,656.728019 2261.36691,656.728019 C2253.59091,656.728019 2247.83091,662.728019 2247.83091,669.976019 L2247.83091,670.072019 C2247.83091,677.272019 2253.54291,683.176019 2261.27091,683.176019 L2261.27091,683.176019 Z M2261.36691,678.136019 C2256.85491,678.136019 2253.63891,674.392019 2253.63891,669.976019 L2253.63891,669.880019 C2253.63891,665.464019 2256.61491,661.816019 2261.27091,661.816019 C2265.83091,661.816019 2269.04691,665.512019 2269.04691,669.976019 L2269.04691,670.072019 C2269.04691,674.440019 2266.07091,678.136019 2261.36691,678.136019 L2261.36691,678.136019 Z M2280.75891,682.600019 L2286.56691,682.600019 L2286.56691,668.296019 C2286.56691,664.360019 2288.91891,662.008019 2292.27891,662.008019 C2295.73491,662.008019 2297.70291,664.264019 2297.70291,668.200019 L2297.70291,682.600019 L2303.51091,682.600019 L2303.51091,666.472019 C2303.51091,660.568019 2300.19891,656.728019 2294.48691,656.728019 C2290.55091,656.728019 2288.19891,658.792019 2286.56691,661.192019 L2286.56691,657.256019 L2280.75891,657.256019 L2280.75891,682.600019 Z" id="Design-Solution-Copy" fill="#131313" sketch:type="MSShapeGroup"></path>
            <path d="M2001.40691,952 L2013.93491,952 C2024.49491,952 2031.79091,944.656 2031.79091,935.2 L2031.79091,935.104 C2031.79091,925.648 2024.49491,918.4 2013.93491,918.4 L2001.40691,918.4 L2001.40691,952 Z M2007.31091,946.624 L2007.31091,923.776 L2013.93491,923.776 C2020.99091,923.776 2025.59891,928.624 2025.59891,935.2 L2025.59891,935.296 C2025.59891,941.872 2020.99091,946.624 2013.93491,946.624 L2007.31091,946.624 Z M2049.88691,952.576 C2054.54291,952.576 2057.85491,950.704 2060.25491,947.824 L2056.84691,944.8 C2054.83091,946.768 2052.81491,947.824 2049.98291,947.824 C2046.23891,947.824 2043.31091,945.52 2042.68691,941.392 L2061.31091,941.392 C2061.35891,940.816 2061.40691,940.288 2061.40691,939.76 C2061.40691,932.464 2057.32691,926.128 2049.26291,926.128 C2042.01491,926.128 2036.87891,932.08 2036.87891,939.328 L2036.87891,939.424 C2036.87891,947.248 2042.54291,952.576 2049.88691,952.576 L2049.88691,952.576 Z M2042.63891,937.552 C2043.16691,933.616 2045.66291,930.88 2049.21491,930.88 C2053.05491,930.88 2055.26291,933.808 2055.64691,937.552 L2042.63891,937.552 Z M2067.26291,959.68 L2073.07091,959.68 L2073.07091,948.064 C2074.84691,950.416 2077.48691,952.528 2081.66291,952.528 C2087.71091,952.528 2093.47091,947.776 2093.47091,939.376 L2093.47091,939.28 C2093.47091,930.88 2087.66291,926.128 2081.66291,926.128 C2077.58291,926.128 2074.94291,928.24 2073.07091,930.88 L2073.07091,926.656 L2067.26291,926.656 L2067.26291,959.68 Z M2080.31891,947.488 C2076.38291,947.488 2072.92691,944.272 2072.92691,939.376 L2072.92691,939.28 C2072.92691,934.432 2076.38291,931.168 2080.31891,931.168 C2084.25491,931.168 2087.56691,934.384 2087.56691,939.28 L2087.56691,939.376 C2087.56691,944.368 2084.30291,947.488 2080.31891,947.488 L2080.31891,947.488 Z M2099.75891,952 L2105.56691,952 L2105.56691,916.96 L2099.75891,916.96 L2099.75891,952 Z M2125.19891,952.576 C2133.02291,952.576 2138.78291,946.576 2138.78291,939.376 L2138.78291,939.28 C2138.78291,932.032 2133.07091,926.128 2125.29491,926.128 C2117.51891,926.128 2111.75891,932.128 2111.75891,939.376 L2111.75891,939.472 C2111.75891,946.672 2117.47091,952.576 2125.19891,952.576 L2125.19891,952.576 Z M2125.29491,947.536 C2120.78291,947.536 2117.56691,943.792 2117.56691,939.376 L2117.56691,939.28 C2117.56691,934.864 2120.54291,931.216 2125.19891,931.216 C2129.75891,931.216 2132.97491,934.912 2132.97491,939.376 L2132.97491,939.472 C2132.97491,943.84 2129.99891,947.536 2125.29491,947.536 L2125.29491,947.536 Z M2148.43091,959.824 C2152.51091,959.824 2154.76691,957.904 2156.78291,952.72 L2166.86291,926.656 L2160.81491,926.656 L2154.23891,945.472 L2147.03891,926.656 L2140.84691,926.656 L2151.40691,952 C2150.44691,954.208 2149.43891,954.928 2147.80691,954.928 C2146.60691,954.928 2145.45491,954.544 2144.39891,953.968 L2142.43091,958.288 C2144.20691,959.248 2145.98291,959.824 2148.43091,959.824 L2148.43091,959.824 Z" id="Deploy-Copy" fill="#131313" sketch:type="MSShapeGroup"></path>
            <path d="M1401.07458,952 L1407.02658,952 L1407.02658,923.872 L1417.68258,923.872 L1417.68258,918.4 L1390.41858,918.4 L1390.41858,923.872 L1401.07458,923.872 L1401.07458,952 Z M1419.79458,952 L1425.60258,952 L1425.60258,942.352 C1425.60258,935.632 1429.15458,932.32 1434.24258,932.32 L1434.57858,932.32 L1434.57858,926.176 C1430.11458,925.984 1427.18658,928.576 1425.60258,932.368 L1425.60258,926.656 L1419.79458,926.656 L1419.79458,952 Z M1459.68258,952 L1459.68258,936.976 C1459.68258,930.208 1456.03458,926.272 1448.54658,926.272 C1444.41858,926.272 1441.68258,927.136 1438.89858,928.384 L1440.48258,933.04 C1442.78658,932.08 1444.89858,931.456 1447.73058,931.456 C1451.76258,931.456 1453.97058,933.376 1453.97058,936.88 L1453.97058,937.36 C1452.00258,936.736 1450.03458,936.304 1446.96258,936.304 C1441.05858,936.304 1436.69058,938.992 1436.69058,944.608 L1436.69058,944.704 C1436.69058,949.792 1440.91458,952.528 1445.71458,952.528 C1449.55458,952.528 1452.19458,950.944 1453.92258,948.88 L1453.92258,952 L1459.68258,952 Z M1454.06658,942.832 C1454.06658,946 1451.18658,948.16 1447.34658,948.16 C1444.61058,948.16 1442.45058,946.816 1442.45058,944.416 L1442.45058,944.32 C1442.45058,941.872 1444.61058,940.384 1448.25858,940.384 C1450.51458,940.384 1452.57858,940.816 1454.06658,941.392 L1454.06658,942.832 Z M1466.69058,922.768 L1472.93058,922.768 L1472.93058,917.248 L1466.69058,917.248 L1466.69058,922.768 Z M1466.93058,952 L1472.73858,952 L1472.73858,926.656 L1466.93058,926.656 L1466.93058,952 Z M1480.32258,952 L1486.13058,952 L1486.13058,937.696 C1486.13058,933.76 1488.48258,931.408 1491.84258,931.408 C1495.29858,931.408 1497.26658,933.664 1497.26658,937.6 L1497.26658,952 L1503.07458,952 L1503.07458,935.872 C1503.07458,929.968 1499.76258,926.128 1494.05058,926.128 C1490.11458,926.128 1487.76258,928.192 1486.13058,930.592 L1486.13058,926.656 L1480.32258,926.656 L1480.32258,952 Z" id="Train-Copy" fill="#131313" sketch:type="MSShapeGroup"></path>
            <path d="M622.984,952 L628.792,952 L628.792,928 L639.304,943.744 L639.496,943.744 L650.104,927.904 L650.104,952 L656.008,952 L656.008,918.4 L649.72,918.4 L639.496,934.288 L629.272,918.4 L622.984,918.4 L622.984,952 Z M685.24,952 L685.24,936.976 C685.24,930.208 681.592,926.272 674.104,926.272 C669.976,926.272 667.24,927.136 664.456,928.384 L666.04,933.04 C668.344,932.08 670.456,931.456 673.288,931.456 C677.32,931.456 679.528,933.376 679.528,936.88 L679.528,937.36 C677.56,936.736 675.592,936.304 672.52,936.304 C666.616,936.304 662.248,938.992 662.248,944.608 L662.248,944.704 C662.248,949.792 666.472,952.528 671.272,952.528 C675.112,952.528 677.752,950.944 679.48,948.88 L679.48,952 L685.24,952 Z M679.624,942.832 C679.624,946 676.744,948.16 672.904,948.16 C670.168,948.16 668.008,946.816 668.008,944.416 L668.008,944.32 C668.008,941.872 670.168,940.384 673.816,940.384 C676.072,940.384 678.136,940.816 679.624,941.392 L679.624,942.832 Z M692.248,922.768 L698.488,922.768 L698.488,917.248 L692.248,917.248 L692.248,922.768 Z M692.488,952 L698.296,952 L698.296,926.656 L692.488,926.656 L692.488,952 Z M705.88,952 L711.688,952 L711.688,937.696 C711.688,933.76 714.04,931.408 717.4,931.408 C720.856,931.408 722.824,933.664 722.824,937.6 L722.824,952 L728.632,952 L728.632,935.872 C728.632,929.968 725.32,926.128 719.608,926.128 C715.672,926.128 713.32,928.192 711.688,930.592 L711.688,926.656 L705.88,926.656 L705.88,952 Z M744.136,952.432 C746.296,952.432 747.928,951.952 749.368,951.136 L749.368,946.384 C748.216,946.96 747.064,947.248 745.768,947.248 C743.8,947.248 742.648,946.336 742.648,944.08 L742.648,931.648 L749.464,931.648 L749.464,926.656 L742.648,926.656 L742.648,919.696 L736.84,919.696 L736.84,926.656 L733.624,926.656 L733.624,931.648 L736.84,931.648 L736.84,944.992 C736.84,950.56 739.864,952.432 744.136,952.432 L744.136,952.432 Z M776.584,952 L776.584,936.976 C776.584,930.208 772.936,926.272 765.448,926.272 C761.32,926.272 758.584,927.136 755.8,928.384 L757.384,933.04 C759.688,932.08 761.8,931.456 764.632,931.456 C768.664,931.456 770.872,933.376 770.872,936.88 L770.872,937.36 C768.904,936.736 766.936,936.304 763.864,936.304 C757.96,936.304 753.592,938.992 753.592,944.608 L753.592,944.704 C753.592,949.792 757.816,952.528 762.616,952.528 C766.456,952.528 769.096,950.944 770.824,948.88 L770.824,952 L776.584,952 Z M770.968,942.832 C770.968,946 768.088,948.16 764.248,948.16 C761.512,948.16 759.352,946.816 759.352,944.416 L759.352,944.32 C759.352,941.872 761.512,940.384 765.16,940.384 C767.416,940.384 769.48,940.816 770.968,941.392 L770.968,942.832 Z M783.592,922.768 L789.832,922.768 L789.832,917.248 L783.592,917.248 L783.592,922.768 Z M783.832,952 L789.64,952 L789.64,926.656 L783.832,926.656 L783.832,952 Z M797.224,952 L803.032,952 L803.032,937.696 C803.032,933.76 805.384,931.408 808.744,931.408 C812.2,931.408 814.168,933.664 814.168,937.6 L814.168,952 L819.976,952 L819.976,935.872 C819.976,929.968 816.664,926.128 810.952,926.128 C807.016,926.128 804.664,928.192 803.032,930.592 L803.032,926.656 L797.224,926.656 L797.224,952 Z" id="Maintain-Copy" fill="#131313" sketch:type="MSShapeGroup"></path>
            <path d="M2898.412,718.480019 C2908.732,718.480019 2916.028,710.560019 2916.028,701.104019 L2916.028,701.008019 C2916.028,691.552019 2908.828,683.728019 2898.508,683.728019 C2888.188,683.728019 2880.892,691.648019 2880.892,701.104019 L2880.892,701.200019 C2880.892,710.656019 2888.092,718.480019 2898.412,718.480019 L2898.412,718.480019 Z M2898.508,713.056019 C2891.836,713.056019 2887.084,707.632019 2887.084,701.104019 L2887.084,701.008019 C2887.084,694.480019 2891.74,689.152019 2898.412,689.152019 C2905.084,689.152019 2909.836,694.576019 2909.836,701.104019 L2909.836,701.200019 C2909.836,707.728019 2905.18,713.056019 2898.508,713.056019 L2898.508,713.056019 Z M2922.508,717.904019 L2928.316,717.904019 L2928.316,708.256019 C2928.316,701.536019 2931.868,698.224019 2936.956,698.224019 L2937.292,698.224019 L2937.292,692.080019 C2932.828,691.888019 2929.9,694.480019 2928.316,698.272019 L2928.316,692.560019 L2922.508,692.560019 L2922.508,717.904019 Z M2952.076,718.432019 C2956.204,718.432019 2958.844,716.320019 2960.716,713.680019 L2960.716,717.904019 L2966.524,717.904019 L2966.524,682.864019 L2960.716,682.864019 L2960.716,696.496019 C2958.892,694.144019 2956.252,692.032019 2952.076,692.032019 C2946.028,692.032019 2940.316,696.784019 2940.316,705.184019 L2940.316,705.280019 C2940.316,713.680019 2946.124,718.432019 2952.076,718.432019 L2952.076,718.432019 Z M2953.468,713.392019 C2949.532,713.392019 2946.172,710.176019 2946.172,705.280019 L2946.172,705.184019 C2946.172,700.144019 2949.484,697.072019 2953.468,697.072019 C2957.356,697.072019 2960.812,700.288019 2960.812,705.184019 L2960.812,705.280019 C2960.812,710.128019 2957.356,713.392019 2953.468,713.392019 L2953.468,713.392019 Z M2985.388,718.480019 C2990.044,718.480019 2993.356,716.608019 2995.756,713.728019 L2992.348,710.704019 C2990.332,712.672019 2988.316,713.728019 2985.484,713.728019 C2981.74,713.728019 2978.812,711.424019 2978.188,707.296019 L2996.812,707.296019 C2996.86,706.720019 2996.908,706.192019 2996.908,705.664019 C2996.908,698.368019 2992.828,692.032019 2984.764,692.032019 C2977.516,692.032019 2972.38,697.984019 2972.38,705.232019 L2972.38,705.328019 C2972.38,713.152019 2978.044,718.480019 2985.388,718.480019 L2985.388,718.480019 Z M2978.14,703.456019 C2978.668,699.520019 2981.164,696.784019 2984.716,696.784019 C2988.556,696.784019 2990.764,699.712019 2991.148,703.456019 L2978.14,703.456019 Z M3002.764,717.904019 L3008.572,717.904019 L3008.572,708.256019 C3008.572,701.536019 3012.124,698.224019 3017.212,698.224019 L3017.548,698.224019 L3017.548,692.080019 C3013.084,691.888019 3010.156,694.480019 3008.572,698.272019 L3008.572,692.560019 L3002.764,692.560019 L3002.764,717.904019 Z M2836.612,784.504039 L2842.516,784.504039 L2842.516,770.344039 L2858.548,770.344039 L2858.548,784.504039 L2864.452,784.504039 L2864.452,750.904039 L2858.548,750.904039 L2858.548,764.872039 L2842.516,764.872039 L2842.516,750.904039 L2836.612,750.904039 L2836.612,784.504039 Z M2893.684,784.504039 L2893.684,769.480039 C2893.684,762.712039 2890.036,758.776039 2882.548,758.776039 C2878.42,758.776039 2875.684,759.640039 2872.9,760.888039 L2874.484,765.544039 C2876.788,764.584039 2878.9,763.960039 2881.732,763.960039 C2885.764,763.960039 2887.972,765.880039 2887.972,769.384039 L2887.972,769.864039 C2886.004,769.240039 2884.036,768.808039 2880.964,768.808039 C2875.06,768.808039 2870.692,771.496039 2870.692,777.112039 L2870.692,777.208039 C2870.692,782.296039 2874.916,785.032039 2879.716,785.032039 C2883.556,785.032039 2886.196,783.448039 2887.924,781.384039 L2887.924,784.504039 L2893.684,784.504039 Z M2888.068,775.336039 C2888.068,778.504039 2885.188,780.664039 2881.348,780.664039 C2878.612,780.664039 2876.452,779.320039 2876.452,776.920039 L2876.452,776.824039 C2876.452,774.376039 2878.612,772.888039 2882.26,772.888039 C2884.516,772.888039 2886.58,773.320039 2888.068,773.896039 L2888.068,775.336039 Z M2900.596,784.504039 L2906.404,784.504039 L2906.404,774.856039 C2906.404,768.136039 2909.956,764.824039 2915.044,764.824039 L2915.38,764.824039 L2915.38,758.680039 C2910.916,758.488039 2907.988,761.080039 2906.404,764.872039 L2906.404,759.160039 L2900.596,759.160039 L2900.596,784.504039 Z M2930.164,785.032039 C2934.292,785.032039 2936.932,782.920039 2938.804,780.280039 L2938.804,784.504039 L2944.612,784.504039 L2944.612,749.464039 L2938.804,749.464039 L2938.804,763.096039 C2936.98,760.744039 2934.34,758.632039 2930.164,758.632039 C2924.116,758.632039 2918.404,763.384039 2918.404,771.784039 L2918.404,771.880039 C2918.404,780.280039 2924.212,785.032039 2930.164,785.032039 L2930.164,785.032039 Z M2931.556,779.992039 C2927.62,779.992039 2924.26,776.776039 2924.26,771.880039 L2924.26,771.784039 C2924.26,766.744039 2927.572,763.672039 2931.556,763.672039 C2935.444,763.672039 2938.9,766.888039 2938.9,771.784039 L2938.9,771.880039 C2938.9,776.728039 2935.444,779.992039 2931.556,779.992039 L2931.556,779.992039 Z M2957.956,784.696039 L2963.14,784.696039 L2968.852,767.368039 L2974.516,784.696039 L2979.7,784.696039 L2988.004,759.160039 L2982.196,759.160039 L2977.012,776.536039 L2971.348,759.064039 L2966.404,759.064039 L2960.788,776.536039 L2955.7,759.160039 L2949.748,759.160039 L2957.956,784.696039 Z M3013.492,784.504039 L3013.492,769.480039 C3013.492,762.712039 3009.844,758.776039 3002.356,758.776039 C2998.228,758.776039 2995.492,759.640039 2992.708,760.888039 L2994.292,765.544039 C2996.596,764.584039 2998.708,763.960039 3001.54,763.960039 C3005.572,763.960039 3007.78,765.880039 3007.78,769.384039 L3007.78,769.864039 C3005.812,769.240039 3003.844,768.808039 3000.772,768.808039 C2994.868,768.808039 2990.5,771.496039 2990.5,777.112039 L2990.5,777.208039 C2990.5,782.296039 2994.724,785.032039 2999.524,785.032039 C3003.364,785.032039 3006.004,783.448039 3007.732,781.384039 L3007.732,784.504039 L3013.492,784.504039 Z M3007.876,775.336039 C3007.876,778.504039 3004.996,780.664039 3001.156,780.664039 C2998.42,780.664039 2996.26,779.320039 2996.26,776.920039 L2996.26,776.824039 C2996.26,774.376039 2998.42,772.888039 3002.068,772.888039 C3004.324,772.888039 3006.388,773.320039 3007.876,773.896039 L3007.876,775.336039 Z M3020.404,784.504039 L3026.212,784.504039 L3026.212,774.856039 C3026.212,768.136039 3029.764,764.824039 3034.852,764.824039 L3035.188,764.824039 L3035.188,758.680039 C3030.724,758.488039 3027.796,761.080039 3026.212,764.872039 L3026.212,759.160039 L3020.404,759.160039 L3020.404,784.504039 Z M3050.98,785.080039 C3055.636,785.080039 3058.948,783.208039 3061.348,780.328039 L3057.94,777.304039 C3055.924,779.272039 3053.908,780.328039 3051.076,780.328039 C3047.332,780.328039 3044.404,778.024039 3043.78,773.896039 L3062.404,773.896039 C3062.452,773.320039 3062.5,772.792039 3062.5,772.264039 C3062.5,764.968039 3058.42,758.632039 3050.356,758.632039 C3043.108,758.632039 3037.972,764.584039 3037.972,771.832039 L3037.972,771.928039 C3037.972,779.752039 3043.636,785.080039 3050.98,785.080039 L3050.98,785.080039 Z M3043.732,770.056039 C3044.26,766.120039 3046.756,763.384039 3050.308,763.384039 C3054.148,763.384039 3056.356,766.312039 3056.74,770.056039 L3043.732,770.056039 Z" id="Order-Hardware-Copy" fill="#131313" sketch:type="MSShapeGroup"></path>
        </g>
    </g>
</svg>
