<?xml version="1.0" encoding="UTF-8" standalone="no"?>
<svg width="70px" height="70px" viewBox="0 0 70 70" version="1.1" xmlns="http://www.w3.org/2000/svg" xmlns:xlink="http://www.w3.org/1999/xlink" xmlns:sketch="http://www.bohemiancoding.com/sketch/ns">
    <!-- Generator: Sketch 3.3.3 (12072) - http://www.bohemiancoding.com/sketch -->
    <title>Slice 2</title>
    <desc>Created with Sketch.</desc>
    <defs></defs>
    <g id="Page-1" stroke="none" stroke-width="1" fill="none" fill-rule="evenodd" sketch:type="MSPage">
        <g id="people-and-devices-copy" sketch:type="MSLayerGroup" transform="translate(1.000000, 7.000000)" fill="#3CC4DC">
            <g id="Page-1" sketch:type="MSShapeGroup">
                <g id="people-and-devices">
                    <path d="M42.5591304,25.6515541 C45.9465652,23.1445946 48.1462174,19.0032432 48.1462174,14.4493919 C48.1462174,6.8422973 42.0136522,0.622094595 34.4486522,0.622094595 C26.8836522,0.622094595 20.751087,6.76277027 20.751087,14.3698649 C20.751087,18.9237162 22.9507391,23.157973 26.3381739,25.6649324 C18.5883913,28.8252027 13.1313913,36.797973 13.1313913,45.7168919 C13.1313913,57.6087838 55.7666522,57.6087838 55.7666522,45.7168919 C55.765913,36.7987162 50.3081739,28.8118243 42.5591304,25.6515541 L42.5591304,25.6515541 L42.5591304,25.6515541 Z" id="Shape"></path>
                    <path d="M58.2737826,25.9956757 C60.7646522,24.1531757 62.3811304,21.1512162 62.3811304,17.8029054 C62.3811304,12.21 57.8724348,7.65912162 52.3104783,7.65912162 C51.0613478,7.65912162 49.8661739,7.88952703 48.7626522,8.30648649 C49.5520435,10.1809459 49.9896087,12.240473 49.9896087,14.4018243 C49.9896087,18.3885811 48.4736522,22.2118243 45.8349565,25.0859459 C53.0703043,29.1537162 57.6100435,36.8960811 57.6100435,45.5281081 C57.6100435,45.8685135 57.5826957,46.2282432 57.5206087,46.5998649 C63.2821304,45.8714865 67.9844783,43.8922297 67.9844783,40.6613514 C67.9844783,33.7097973 63.9717391,28.3197973 58.2737826,25.9956757 L58.2737826,25.9956757 L58.2737826,25.9956757 Z" id="Shape"></path>
                    <path d="M11.2865217,45.5281081 C11.2865217,37.0543919 15.6673478,29.4398649 22.6787391,25.3170946 C22.785913,25.2182432 22.8901304,25.1156757 22.9928696,25.0131081 C20.3970435,22.1419595 18.9062174,18.3358108 18.9062174,14.3587162 C18.9062174,12.3073649 19.306087,10.3489189 20.0252609,8.5525 C18.7650435,7.9802027 17.3688261,7.65912162 15.8972174,7.65912162 C10.3352609,7.65912162 5.82656522,12.1847297 5.82656522,17.7776351 C5.82656522,21.1266892 7.44378261,24.1576351 9.93391304,26.0001351 C4.23669565,28.3242568 0.223956522,33.7097973 0.223956522,40.6613514 C0.223956522,44.0222973 5.31286957,46.0290541 11.3892609,46.6816216 C11.3175652,46.2810135 11.2865217,45.894527 11.2865217,45.5281081 L11.2865217,45.5281081 L11.2865217,45.5281081 Z" id="Shape"></path>
                </g>
            </g>
        </g>
    </g>
</svg>