<?xml version="1.0" encoding="UTF-8" standalone="no"?>
<svg width="285px" height="214px" viewBox="0 0 285 214" version="1.1" xmlns="http://www.w3.org/2000/svg" xmlns:xlink="http://www.w3.org/1999/xlink" xmlns:sketch="http://www.bohemiancoding.com/sketch/ns">
    <!-- Generator: Sketch 3.4.2 (15855) - http://www.bohemiancoding.com/sketch -->
    <title>Slice 1</title>
    <desc>Created with Sketch.</desc>
    <defs></defs>
    <g id="Page-1" stroke="none" stroke-width="1" fill="none" fill-rule="evenodd" sketch:type="MSPage">
        <g sketch:type="MSLayerGroup" transform="translate(88.000000, 36.000000)" fill="#000000">
            <path d="M92.8757818,18.0966316 L78.6504727,18.0966316 L84.4404364,30.9012632 C85.0247273,31.8334737 85.3348364,32.9058947 85.3348364,34.0162105 C85.3348364,37.1917895 82.8010182,39.7818947 79.6469818,39.8785263 L24.5742545,39.8785263 C22.5793455,39.8785263 20.7413818,38.8724211 19.6616727,37.1917895 C18.5762909,35.5035789 18.4212364,33.4174737 19.2494545,31.5966316 L25.3495273,18.0966316 L11.1242182,18.0966316 C5.03738182,18.0966316 0.0813090909,22.8334737 0.0813090909,28.6503158 L0.0813090909,131.559158 C0.0813090909,137.376 5.02981818,142.112842 11.1242182,142.112842 L92.8682182,142.112842 C98.9626182,142.112842 103.911127,137.376 103.911127,131.559158 L103.911127,28.6503158 C103.918691,22.8258947 98.9626182,18.0966316 92.8757818,18.0966316 L92.8757818,18.0966316 Z M54.0459636,107.867368 C54.0459636,109.487368 52.7393455,110.798526 51.1207273,110.798526 C49.5115636,110.798526 48.1954909,109.487368 48.1954909,107.867368 L48.1954909,105.631579 C48.1954909,104.011579 49.5115636,102.700421 51.1207273,102.700421 C52.7317818,102.700421 54.0459636,104.011579 54.0459636,105.631579 L54.0459636,107.867368 Z M56.3717818,90.252 C53.9344,93.2930526 54.1045818,96.6012632 54.1121455,96.6315789 C54.2388364,98.2458947 53.0267636,99.6517895 51.4157091,99.7692632 C51.3419636,99.7768421 51.2682182,99.7768421 51.1944727,99.7768421 C49.6798545,99.7768421 48.4034909,98.6077895 48.2843636,97.0673684 C48.2692364,96.8381053 47.9156364,91.4437895 51.8222545,86.5724211 C54.2898909,83.5086316 54.5924364,81.9701053 54.6302545,81.5911579 C54.5489455,81.3694737 54.5035636,81.1326316 54.4808727,80.8957895 C54.3636364,79.4898947 53.8682182,79.1943158 53.6848,79.0749474 C52.3025455,78.2317895 49.0161455,78.9877895 47.5525818,79.5789474 C46.0530909,80.1852632 44.3474909,79.4671579 43.7424,77.9646316 C43.1354182,76.4621053 43.8596364,74.7606316 45.3515636,74.1467368 C46.0606545,73.8568421 52.3914182,71.4145263 56.7348364,74.0804211 C58.1378909,74.9387368 59.8434909,76.6477895 60.2576,79.9484211 C60.7681455,81.5854737 60.7227636,84.8406316 56.3717818,90.252 L56.3717818,90.252 Z" id="Fill-1" sketch:type="MSShapeGroup"></path>
            <path d="M42.7232,5.86231579 L61.2768,5.86231579 C62.8878545,5.86231579 64.2020364,4.55115789 64.2020364,2.93115789 C64.2020364,1.30926316 62.8878545,0 61.2768,0 L42.7232,0 C41.1121455,0 39.7979636,1.30926316 39.7979636,2.93115789 C39.7979636,4.55115789 41.1121455,5.86231579 42.7232,5.86231579 L42.7232,5.86231579 Z" id="Fill-2" sketch:type="MSShapeGroup"></path>
            <path d="M22.1141818,35.6002105 C22.6530909,36.4357895 23.5777455,36.9473684 24.5742545,36.9473684 L79.4181818,36.9473684 L79.4768,36.9473684 C81.0954182,36.9473684 82.4020364,35.6381053 82.4020364,34.0162105 C82.4020364,33.3795789 82.2034909,32.8016842 81.8631273,32.3223158 L71.9358545,10.3698947 C71.4631273,9.31831579 70.4212364,8.65136842 69.2772364,8.65136842 L34.7227636,8.65136842 C33.5712,8.65136842 32.5368727,9.32589474 32.0641455,10.3698947 L21.9156364,32.8016842 C21.5015273,33.7130526 21.5828364,34.7646316 22.1141818,35.6002105 L22.1141818,35.6002105 Z" id="Fill-3" sketch:type="MSShapeGroup"></path>
        </g>
    </g>
</svg>