<?xml version="1.0" encoding="UTF-8" standalone="no"?>
<svg width="286px" height="214px" viewBox="0 0 286 214" version="1.1" xmlns="http://www.w3.org/2000/svg" xmlns:xlink="http://www.w3.org/1999/xlink" xmlns:sketch="http://www.bohemiancoding.com/sketch/ns">
    <!-- Generator: Sketch 3.4.2 (15855) - http://www.bohemiancoding.com/sketch -->
    <title>Slice 1</title>
    <desc>Created with Sketch.</desc>
    <defs></defs>
    <g id="Page-1" stroke="none" stroke-width="1" fill="none" fill-rule="evenodd" sketch:type="MSPage">
        <g sketch:type="MSLayerGroup" transform="translate(50.000000, 12.000000)" fill="#000000">
            <path d="M191.35946,167.275762 L123.389461,112.453392 C123.389461,112.453392 133.342935,95.1522015 121.308332,82.062542 C115.395377,75.9148078 106.259282,70.923578 97.7231776,74.7380138 L109.247643,88.3696941 L105.581031,106.169428 L87.2392762,110.357771 L73.0858645,93.0681747 C73.0858645,93.0681747 67.4018915,110.809939 77.8075331,120.853267 C89.0276553,131.667598 109.247643,125.032914 110.821533,125.032914 L171.452511,186.150842 C171.452511,186.150842 184.043627,199.237603 193.997101,187.713137 C203.947677,176.162585 191.35946,167.275762 191.35946,167.275762 L191.35946,167.275762 Z M182.742197,183.478418 C179.287176,183.478418 176.493015,180.681358 176.493015,177.217642 C176.493015,173.762621 179.287176,170.965561 182.742197,170.965561 C186.194319,170.965561 189.002973,173.762621 189.002973,177.217642 C189.002973,180.681358 186.194319,183.478418 182.742197,183.478418 L182.742197,183.478418 Z" id="Fill-1" sketch:type="MSShapeGroup"></path>
            <path d="M113.64178,141.823968 C96.7608731,148.038368 77.0713122,144.586245 63.291808,131.203837 C44.1355724,112.61281 43.6921008,82.0074704 62.2831274,62.8512348 C80.885748,43.6921008 111.491088,43.2515277 130.635729,61.8541483 C145.163048,75.9611839 148.88763,96.9637686 141.731216,114.638867 L167.922129,135.754493 C171.397439,129.482123 174.023487,122.882222 175.698824,116.076527 L175.788678,116.076527 C175.788678,116.076527 177.206048,110.314294 179.855284,110.279512 C182.50452,110.233136 186.420403,110.178064 186.420403,110.178064 C189.411663,110.131688 191.811627,107.665058 191.765251,104.673798 L191.481197,85.5842285 C191.437719,82.5842733 188.979785,80.1959032 185.97983,80.2422793 C185.97983,80.2422793 182.061048,80.2857569 179.423406,80.3321331 C176.785764,80.3669152 175.211875,74.6597541 175.211875,74.6597541 L175.122021,74.64816 C173.185818,67.7178288 170.298905,61.0164796 166.493165,54.6861394 L166.574323,54.6194738 C166.574323,54.6194738 163.493209,49.5354918 165.327965,47.6456649 C167.174314,45.7413455 169.901809,42.9326919 169.901809,42.9326919 C171.985836,40.7935934 171.93946,37.3530651 169.788767,35.2690383 L156.090421,21.9648892 C153.93683,19.8808624 150.496302,19.9272385 148.400681,22.077931 C148.400681,22.077931 145.68478,24.8865847 143.838431,26.7880055 C142.003675,28.6807309 136.82984,25.7474414 136.82984,25.7474414 L136.763174,25.8257011 C130.34298,22.2141608 123.548879,19.530143 116.551882,17.78814 L116.551882,17.6953878 C116.551882,17.6953878 110.778055,16.2925102 110.743273,13.6432744 C110.708491,10.9940386 110.653419,7.07525661 110.653419,7.07525661 C110.607043,4.08689546 108.140413,1.69852535 105.13756,1.73330744 L86.0508882,2.01446265 C83.0480345,2.06083877 80.6712584,4.51877306 80.7060405,7.51872824 C80.7060405,7.51872824 80.7611122,11.4346118 80.7958943,14.0722535 C80.8306763,16.7127938 75.1119212,18.3069728 75.1119212,18.3069728 L75.1235152,18.3881311 C68.1728945,20.31274 61.4686468,23.2112474 55.1499006,27.0140891 L55.0716409,26.9474235 C55.0716409,26.9474235 49.9876589,30.0140443 48.0978321,28.1821876 C46.2051067,26.3474324 43.3993516,23.6083429 43.3993516,23.6083429 C41.2457605,21.512722 37.8052322,21.5677937 35.7096114,23.7213847 L22.4170564,37.4081367 C20.324334,39.5588292 20.3794056,43.002256 22.5300982,45.0862829 C22.5300982,45.0862829 25.3387518,47.8137784 27.2314772,49.6485335 C29.132898,51.5064768 26.1996085,56.6687185 26.1996085,56.6687185 L26.2662742,56.7353842 C22.654734,63.1787662 19.9620206,69.9612735 18.2403072,76.9582704 L18.1388594,76.9466764 C18.1504534,76.9466764 16.7330833,82.7089091 14.0954416,82.7668793 C11.4577998,82.7987629 7.5419163,82.856733 7.5419163,82.856733 C4.52746859,82.9031091 2.13909847,85.381333 2.17388056,88.3696941 L2.45793429,107.459264 C2.5014119,110.459219 4.97094022,112.862082 7.95930137,112.804112 C7.95930137,112.804112 11.8896774,112.746142 14.5157251,112.702664 C17.1649609,112.667882 18.7388505,118.386637 18.7388505,118.386637 L18.8287042,118.386637 C20.7649071,125.302476 23.6402265,132.018317 27.4459667,138.345759 L27.3764026,138.403729 C27.3764026,138.403729 30.4575159,143.487711 28.6111667,145.389132 C26.7648175,147.278959 24.048916,150.087613 24.048916,150.087613 C21.9648892,152.22961 22.0112653,155.658544 24.1619578,157.754165 L37.8603039,171.058314 C40.0023009,173.151036 43.4428292,173.107558 45.53845,170.933678 C45.53845,170.933678 48.2659455,168.136618 50.1122947,166.235197 C51.9470499,164.342472 57.1208857,167.275762 57.1208857,167.275762 L57.1875513,167.197502 C63.6193393,170.809042 70.4018467,173.490161 77.3988436,175.223469 L77.3988436,175.324917 C77.3988436,175.324917 83.1726703,176.719099 83.2074524,179.368334 C83.2538285,182.029164 83.3089002,185.933454 83.3089002,185.933454 C83.3552763,188.936307 85.8219061,191.313084 88.8131658,191.266707 L107.902736,190.985552 C110.902691,190.95077 113.291061,188.481242 113.244685,185.481287 C113.244685,185.481287 113.189613,181.576997 113.143237,178.936457 C113.099759,176.287221 118.82721,174.701738 118.82721,174.701738 L118.82721,174.611884 C125.496676,172.756839 131.940058,169.971373 138.041416,166.368529 L113.64178,141.823968 Z" id="Fill-2" sketch:type="MSShapeGroup"></path>
        </g>
    </g>
</svg>