<?xml version="1.0" encoding="UTF-8" standalone="no"?>
<svg width="70px" height="70px" viewBox="0 0 70 70" version="1.1" xmlns="http://www.w3.org/2000/svg" xmlns:xlink="http://www.w3.org/1999/xlink" xmlns:sketch="http://www.bohemiancoding.com/sketch/ns">
    <!-- Generator: Sketch 3.3.3 (12072) - http://www.bohemiancoding.com/sketch -->
    <title>Slice 2</title>
    <desc>Created with Sketch.</desc>
    <defs></defs>
    <g id="Page-1" stroke="none" stroke-width="1" fill="none" fill-rule="evenodd" sketch:type="MSPage">
        <g id="strategy-and-projects-copy" sketch:type="MSLayerGroup" transform="translate(6.500000, 9.000000)" fill="#FA0567">
            <g id="Page-1" sketch:type="MSShapeGroup">
                <g id="noun_47139_cc">
                    <path d="M40.0959184,17.8187421 L52.5581633,17.8187421 L58.6989796,11.2730818 L52.5581633,4.72742138 L40.0959184,4.72742138 L29.6806122,4.72742138 L29.6806122,0 L23.0581633,0 L23.0581633,12.727673 L12.0408163,12.727673 L8.24795918,12.727673 L8.06734694,12.8488889 L7.82653061,12.8488889 L0.301020408,19.4551572 L7.82653061,26.0008176 L11.6795918,26.0008176 L23.0581633,26.0008176 L23.0581633,54.5471698 L29.6806122,54.5471698 L29.6806122,33.8798532 L35.7612245,33.8798532 L39.6142857,33.8798532 L47.0795918,27.2735849 L39.6142857,20.7279245 L35.7612245,20.7279245 L29.6806122,20.7279245 L29.6806122,17.8187421 L40.0959184,17.8187421 L40.0959184,17.8187421 Z" id="Shape"></path>
                </g>
            </g>
        </g>
    </g>
</svg>