<?xml version="1.0" encoding="UTF-8" standalone="no"?>
<svg width="69px" height="69px" viewBox="0 0 69 69" version="1.1" xmlns="http://www.w3.org/2000/svg" xmlns:xlink="http://www.w3.org/1999/xlink" xmlns:sketch="http://www.bohemiancoding.com/sketch/ns">
    <!-- Generator: Sketch 3.3.3 (12072) - http://www.bohemiancoding.com/sketch -->
    <title>Slice 1</title>
    <desc>Created with Sketch.</desc>
    <defs></defs>
    <g id="Page-1" stroke="none" stroke-width="1" fill="none" fill-rule="evenodd" sketch:type="MSPage">
        <g id="noun_20052_cc-copy" sketch:type="MSLayerGroup" transform="translate(1.000000, 6.000000)" fill="#9DE335">
            <ellipse id="Oval" sketch:type="MSShapeGroup" cx="25.2719898" cy="51.9072706" rx="5.7749898" ry="5.76383529"></ellipse>
            <path d="M23.8916531,51.8690588 C10.7528163,45.3082353 7.79592857,30.7372706 7.79592857,26.1504941 C7.79592857,11.8893176 19.4204286,0.287270588 33.7085204,0.287270588 C47.9972959,0.287270588 59.6217959,11.8893176 59.6217959,26.1504941 C59.6217959,28.0372 59.3948163,29.9805412 58.9476939,31.9293412 L56.282051,31.32 C56.6833673,29.5711294 56.887102,27.8318118 56.887102,26.1504941 C56.887102,13.3939059 46.4897959,3.016 33.7085204,3.016 C20.9279286,3.016 10.5306224,13.3939059 10.5306224,26.1498118 C10.5306224,30.2992 13.2099388,43.4822588 25.1154286,49.4269176 L23.8916531,51.8690588 L23.8916531,51.8690588 Z" id="Shape" sketch:type="MSShapeGroup"></path>
            <path d="M66.7374694,25.7779294 C66.7374694,20.0502588 61.6215408,15.4054824 55.3071327,15.4054824 L55.3071327,36.1456 C61.6208571,36.1456 66.7374694,31.5049176 66.7374694,25.7779294 L66.7374694,25.7779294 Z" id="Shape" sketch:type="MSShapeGroup"></path>
            <path d="M0.311071429,25.7779294 C0.311071429,20.0502588 5.42768367,15.4054824 11.7420918,15.4054824 L11.7420918,36.1456 C5.42768367,36.1456 0.311071429,31.5049176 0.311071429,25.7779294 L0.311071429,25.7779294 Z" id="Shape" sketch:type="MSShapeGroup"></path>
            <path d="M43.7872347,25.6080235 C36.9593878,25.6080235 31.1160306,21.5971529 28.3567245,15.8326353 C26.0800918,20.5947765 21.705949,24.1709882 16.3883367,25.2572941 C16.3883367,25.3780706 16.3548367,25.4872471 16.3548367,25.6087059 C16.3548367,35.0606588 24.0304388,42.7207529 33.5,42.7207529 C42.9695612,42.7207529 50.6451633,35.0599765 50.6451633,25.6087059 C50.6451633,25.1399294 50.5446633,24.6998118 50.5077449,24.2385412 C48.441,25.1174118 46.1712041,25.6080235 43.7872347,25.6080235 L43.7872347,25.6080235 Z" id="Shape" sketch:type="MSShapeGroup"></path>
        </g>
    </g>
</svg>