<?xml version="1.0" encoding="UTF-8" standalone="no"?>
<svg width="33px" height="48px" viewBox="0 0 33 48" version="1.1" xmlns="http://www.w3.org/2000/svg" xmlns:xlink="http://www.w3.org/1999/xlink" xmlns:sketch="http://www.bohemiancoding.com/sketch/ns">
    <!-- Generator: Sketch 3.4.2 (15855) - http://www.bohemiancoding.com/sketch -->
    <title>Slice 1</title>
    <desc>Created with Sketch.</desc>
    <defs></defs>
    <g id="Page-1" stroke="none" stroke-width="1" fill="none" fill-rule="evenodd" sketch:type="MSPage">
        <path d="M16.25728,0 C7.27744,0 0,7.28 0,16.25728 C0,16.44992 0.00448,16.64512 0.01472,16.84224 C0.07488,18.54976 0.39744,20.19008 0.94464,21.7248 C4.41216,33.12768 16.25728,48 16.25728,48 C16.25728,48 28.09984,33.12768 31.56992,21.72736 C32.11712,20.19264 32.43968,18.55232 32.49984,16.84224 C32.51008,16.64512 32.51456,16.44992 32.51456,16.25728 C32.51456,7.28 25.23712,0 16.25728,0 L16.25728,0 Z M16.25728,24.22016 C11.85984,24.22016 8.29504,20.65472 8.29504,16.25728 C8.29504,11.85984 11.85984,8.29504 16.25728,8.29504 C20.65472,8.29504 24.21952,11.85984 24.21952,16.25728 C24.21952,20.65472 20.65472,24.22016 16.25728,24.22016 L16.25728,24.22016 Z" id="Page-1-Copy-2" fill="#FFFFFF" sketch:type="MSShapeGroup"></path>
    </g>
</svg>